<svg width="276" height="194" viewBox="0 0 276 194" fill="none" xmlns="http://www.w3.org/2000/svg">
<path d="M236.709 34.9199H132.478C131.94 34.9199 131.504 35.3542 131.504 35.8899V156.008C131.504 156.544 131.94 156.978 132.478 156.978H236.709C237.247 156.978 237.683 156.544 237.683 156.008V35.8899C237.683 35.3542 237.247 34.9199 236.709 34.9199Z" fill="#F2F6FB"/>
<path d="M152.428 47.853V48.823H140.11C140.019 48.823 139.947 48.8951 139.947 48.9845H138.973C138.973 48.3592 139.482 47.853 140.11 47.853H152.428ZM167.689 47.853V48.823H154.376V47.853H167.689ZM182.951 47.853V48.823H169.638V47.853H182.951ZM198.212 47.853V48.823H184.899V47.853H198.212ZM213.473 47.853V48.823H200.16V47.853H213.473ZM228.734 47.853V48.823H215.421V47.853H228.734ZM230.377 62.6871H229.403V49.4304H230.377V62.6871ZM225.404 74.2047V73.2347H229.24C229.331 73.2347 229.403 73.1626 229.403 73.0732V64.6271H230.377V73.0732C230.377 73.6985 229.869 74.2047 229.24 74.2047H225.404ZM210.143 74.2047V73.2347H223.456V74.2047H210.143ZM194.881 74.2047V73.2347H208.194V74.2047H194.881ZM179.62 74.2047V73.2347H192.933V74.2047H179.62ZM164.359 74.2047V73.2347H177.672V74.2047H164.359ZM149.098 74.2047V73.2347H162.411V74.2047H149.098ZM138.973 67.8168H139.947V73.0732C139.947 73.1622 140.02 73.2347 140.11 73.2347H147.15V74.2047H140.11C139.482 74.2047 138.973 73.6983 138.973 73.0732V67.8168ZM138.973 52.6201H139.947V65.8768H138.973V52.6201ZM138.973 48.9845H139.947V50.6801H138.973V48.9845Z" fill="#D8DEED"/>
<path d="M131.504 36.6989C131.504 34.9128 132.957 33.4648 134.751 33.4648H234.436C236.229 33.4648 237.683 34.9129 237.683 36.6989V40.5782H131.504V36.6989Z" fill="#D8DEED"/>
<path d="M136.292 38.6381C137.144 38.6381 137.835 37.9505 137.835 37.1022C137.835 36.254 137.144 35.5664 136.292 35.5664C135.441 35.5664 134.75 36.254 134.75 37.1022C134.75 37.9505 135.441 38.6381 136.292 38.6381Z" fill="#FF5645"/>
<path d="M141.328 38.6381C142.179 38.6381 142.87 37.9505 142.87 37.1022C142.87 36.254 142.179 35.5664 141.328 35.5664C140.476 35.5664 139.785 36.254 139.785 37.1022C139.785 37.9505 140.476 38.6381 141.328 38.6381Z" fill="#FFCB3D"/>
<path d="M146.523 38.6381C147.375 38.6381 148.065 37.9505 148.065 37.1022C148.065 36.254 147.375 35.5664 146.523 35.5664C145.671 35.5664 144.98 36.254 144.98 37.1022C144.98 37.9505 145.671 38.6381 146.523 38.6381Z" fill="#3ABF7C"/>
<path d="M138.987 81.1553C138.987 80.7988 139.277 80.5098 139.637 80.5098H229.093C229.452 80.5098 229.743 80.7981 229.743 81.1553V108.523C229.743 108.88 229.453 109.169 229.093 109.169H139.637C139.278 109.169 138.987 108.881 138.987 108.523V81.1553ZM139.297 114.298H173.879C174.058 114.298 174.203 114.443 174.203 114.621V118.501C174.203 118.68 174.058 118.825 173.879 118.825H139.297C139.118 118.825 138.973 118.68 138.973 118.501V114.621C138.973 114.443 139.118 114.298 139.297 114.298ZM139.297 121.735H163.813C163.992 121.735 164.137 121.88 164.137 122.058V125.938C164.137 126.117 163.992 126.261 163.813 126.261H139.297C139.118 126.261 138.973 126.117 138.973 125.938V122.058C138.973 121.88 139.118 121.735 139.297 121.735ZM139.297 129.333H168.846C169.025 129.333 169.17 129.478 169.17 129.656V133.536C169.17 133.715 169.025 133.86 168.846 133.86H139.297C139.118 133.86 138.973 133.715 138.973 133.536V129.656C138.973 129.478 139.118 129.333 139.297 129.333ZM139.297 136.77H158.78C158.959 136.77 159.104 136.915 159.104 137.093V140.973C159.104 141.152 158.959 141.296 158.78 141.296H139.297C139.118 141.296 138.973 141.152 138.973 140.973V137.093C138.973 136.915 139.118 136.77 139.297 136.77ZM184.594 121.735H220.311C220.491 121.735 220.636 121.88 220.636 122.058V125.938C220.636 126.117 220.491 126.261 220.311 126.261H184.594C184.415 126.261 184.269 126.117 184.269 125.938V122.058C184.269 121.88 184.415 121.735 184.594 121.735ZM184.594 129.333H224.857C225.037 129.333 225.182 129.478 225.182 129.656V133.536C225.182 133.715 225.037 133.86 224.857 133.86H184.594C184.415 133.86 184.269 133.715 184.269 133.536V129.656C184.269 129.478 184.415 129.333 184.594 129.333ZM184.594 136.77H229.403C229.583 136.77 229.728 136.915 229.728 137.093V140.973C229.728 141.152 229.583 141.296 229.403 141.296H184.594C184.415 141.296 184.269 141.152 184.269 140.973V137.093C184.269 136.915 184.415 136.77 184.594 136.77ZM184.594 144.206H215.766C215.945 144.206 216.09 144.351 216.09 144.53V148.41C216.09 148.588 215.945 148.733 215.766 148.733H184.594C184.415 148.733 184.269 148.588 184.269 148.41V144.53C184.269 144.351 184.415 144.206 184.594 144.206ZM184.609 114.327H229.418C229.597 114.327 229.743 114.472 229.743 114.651V118.59C229.743 118.768 229.597 118.913 229.418 118.913H184.609C184.429 118.913 184.284 118.768 184.284 118.59V114.651C184.284 114.472 184.429 114.327 184.609 114.327Z" fill="#E1E5F0"/>
<path fill-rule="evenodd" clip-rule="evenodd" d="M185.418 100.542L184.745 100.55L184.75 100.542H176.517C176.337 100.542 176.268 100.419 176.363 100.267L182.194 90.9442C182.289 90.7927 182.446 90.7917 182.545 90.9399L186.749 97.3395L188.365 94.75C188.46 94.5982 188.618 94.5933 188.72 94.7406L192.44 100.12C192.541 100.266 192.479 100.39 192.298 100.395L188.871 100.501L188.725 100.503L188.748 100.542C188.748 100.542 188.603 100.542 188.422 100.542H185.418ZM188.669 92.3772C187.928 92.3772 187.327 91.7736 187.327 91.0289C187.327 90.2843 187.928 89.6807 188.669 89.6807C189.411 89.6807 190.012 90.2843 190.012 91.0289C190.012 91.7736 189.411 92.3772 188.669 92.3772Z" fill="white"/>
<path d="M48.297 174.6H64.857C65.2605 174.6 65.5876 174.926 65.5876 175.328C65.5876 175.729 65.2605 176.055 64.857 176.055H48.297C47.8935 176.055 47.5664 175.729 47.5664 175.328C47.5664 174.926 47.8935 174.6 48.297 174.6ZM99.6005 174.6H127.201C127.604 174.6 127.931 174.926 127.931 175.328C127.931 175.729 127.604 176.055 127.201 176.055H99.6005C99.197 176.055 98.8699 175.729 98.8699 175.328C98.8699 174.926 99.197 174.6 99.6005 174.6Z" fill="#FFCB3D"/>
<path d="M127.285 174.605C127.258 174.602 127.23 174.6 127.202 174.6H99.6018C99.5543 174.6 99.5078 174.604 99.4628 174.613L100.767 164.255H112.976L115.882 166.389C116.548 167.052 117.278 167.65 118.058 168.183C119.957 169.444 120.948 169.428 123.837 170.819C124.617 171.19 125.364 171.595 126.11 172.063C126.468 172.387 127.101 173.033 127.296 173.809C127.328 173.939 127.328 174.068 127.344 174.181C127.344 174.332 127.322 174.474 127.285 174.605ZM65.0667 174.63C65.0006 174.61 64.9307 174.6 64.8583 174.6H48.2982C48.2552 174.6 48.2129 174.604 48.1719 174.611L52.0936 164.587L63.7181 166.155L65.0667 174.63Z" fill="#474961"/>
<path d="M59.7635 121.45C59.6938 121.435 59.624 121.42 59.5542 121.404C63.3046 99.6253 66.1638 86.5737 68.1318 82.2494C70.0998 77.9251 72.4192 74.8629 75.0901 73.0629C77.6387 70.1713 82.1337 70.3324 88.3519 70.1511C88.5099 70.1438 88.6893 70.1454 88.8472 70.1379C95.2764 70.0298 94.2071 70.2745 95.9045 70.7974C104.05 72.9638 110.807 86.6454 116.175 111.842L117.882 120.095C117.857 120.028 117.832 119.961 117.806 119.896C117.853 120.109 117.875 120.325 117.874 120.545C118.046 124.071 115.298 126.834 109.629 128.835C106.166 130.058 99.3885 133.422 88.2455 134.484C83.515 134.934 74.6869 134.836 61.7613 134.19C59.6252 130.617 58.7112 127.757 59.0191 125.61C59.1879 124.433 59.436 123.046 59.7635 121.45Z" fill="#8F4AFF"/>
<path opacity="0.176986" d="M59.7548 121.492C78.7435 125.594 92.7745 125.277 101.848 120.542C110.744 115.899 116.06 115.669 117.796 119.85C117.849 120.078 117.875 120.31 117.874 120.545C118.046 124.071 115.298 126.834 109.629 128.835C106.166 130.058 99.3885 133.422 88.2455 134.484C83.515 134.934 74.6869 134.836 61.7613 134.19C59.6252 130.617 58.7112 127.757 59.0191 125.61C59.1864 124.444 59.4317 123.071 59.7548 121.492Z" fill="#444444"/>
<path d="M77.0408 57.6133C75.2232 57.3346 73.765 57.0375 72.6664 56.7219C71.7661 56.5959 70.39 56.2401 69.8503 55.185C69.0639 53.6709 70.5034 51.6031 72.1099 49.2812C74.0437 46.4989 75.2284 45.4954 77.0921 44.1829C80.2649 41.9484 82.2242 41.8617 83.6456 43.2994C83.7886 43.444 83.931 43.6834 84.0727 44.0175C84.478 43.9588 84.8926 43.9312 85.3142 43.9373L88.8859 44.002C93.4156 44.0505 97.0198 47.9143 96.9549 52.5865V52.8775L96.8574 61.8823L96.7698 66.099C96.7095 69.0018 94.3291 71.3236 91.4133 71.3236H82.3055C82.2856 71.3236 82.2658 71.3235 82.246 71.3233C79.2872 71.2906 76.9153 68.8757 76.9481 65.9294L77.0408 57.6133Z" fill="#FF5678"/>
<path d="M151.133 61.9005L28.5627 55.504C27.6673 55.4573 26.9034 56.1422 26.8564 57.0339L24.7832 96.4265C24.7363 97.3181 25.4241 98.0788 26.3195 98.1256L148.89 104.522C149.786 104.569 150.549 103.884 150.596 102.992L152.67 63.5996C152.717 62.708 152.029 61.9473 151.133 61.9005Z" fill="#D8DEED"/>
<path d="M109.955 72.0553L33.4298 68.0617C33.0716 68.043 32.766 68.317 32.7473 68.6736L32.3394 76.423C32.3206 76.7796 32.5958 77.0839 32.9539 77.1026L109.48 81.0962C109.838 81.1149 110.143 80.8409 110.162 80.4843L110.57 72.7349C110.589 72.3782 110.313 72.074 109.955 72.0553Z" fill="white"/>
<path d="M90.1739 41.7654L89.9621 44.4509C89.9516 44.5831 89.8613 44.6955 89.7341 44.7346C89.0247 44.9525 88.3351 45.0316 87.6653 44.972C86.9763 44.9107 85.9627 44.6647 84.6246 44.2339C84.466 44.1828 84.372 44.0205 84.4071 43.8582L85.483 38.8755L85.5461 38.8933C84.9556 37.7056 84.5817 37.0412 84.4242 36.9C83.8252 36.3287 83.3522 32.8022 86.0218 33.0147C86.3158 33.0165 86.6022 33.1003 86.8775 33.234L86.8953 33.2484C86.9845 33.3204 87.0992 33.3246 87.214 33.3288C87.4885 33.3001 87.6941 33.0835 87.6814 32.8085L87.3838 28.5969C87.355 28.3236 87.5445 28.1087 87.819 28.08C88.4164 28.0174 88.9943 27.9244 89.5781 27.7333C89.6589 27.7248 89.7218 27.702 89.7863 27.6952C90.3608 27.5701 93.4567 27.051 95.3786 29.1744C95.5477 29.3843 95.7168 29.5942 95.8535 29.8075C96.2053 30.3559 96.4023 30.9855 96.4251 31.6658L96.5564 34.6106C96.5547 34.9034 96.5529 35.1962 96.5206 35.5084C96.1274 39.2071 94.7452 41.8877 93.3651 42.1134C92.6564 42.2038 91.9374 42.1978 91.2211 42.0614C91.1301 42.0274 91.1886 42.0555 90.1739 41.7654ZM76.0494 124.038L63.7182 166.155L52.0938 164.586L59.5533 121.404L59.5902 121.407C59.5875 121.423 59.5847 121.439 59.5819 121.455C65.5611 122.753 71.0503 123.614 76.0494 124.038V124.038ZM97.7485 122.269C99.2117 121.78 100.578 121.204 101.847 120.542C110.585 115.981 115.869 115.678 117.699 119.632C118.746 122.953 119.045 125.984 118.597 128.724C117.253 136.951 115.379 148.794 112.976 164.255H100.767L100.978 129.545L97.7485 122.269ZM70.4617 55.8615C71.1173 56.3962 72.0437 56.6152 72.7097 56.7084C74.7301 57.2888 77.9664 57.8068 82.4188 58.2624L80.11 67.2604L94.734 72.4669C94.8056 72.4821 95.147 72.6179 95.7582 72.8743C102.099 74.6729 106.323 76.303 108.43 77.7647C110.064 78.8982 109.732 80.3816 107.434 82.2148C105.606 83.674 103.153 84.096 100.939 83.3324L91.4875 80.0732C91.488 80.0617 91.4885 80.0502 91.489 80.0387C79.643 78.7529 72.5118 76.2173 70.0955 72.4319C67.8662 68.9394 67.9883 63.4159 70.4617 55.8615V55.8615ZM107.041 59.6217C110.949 55.6184 114.526 54.9744 117.772 57.6898C121.018 60.4052 117.441 61.0492 107.041 59.6217Z" fill="#ED9474"/>
<path d="M80.9818 35.1627C80.4897 35.3568 80.003 35.4314 79.5218 35.3867C76.3378 35.0905 74.1796 32.305 73.3273 29.5822C72.4749 26.8594 73.9725 25.4625 76.3683 23.939C78.7642 22.4155 81.5069 23.5017 83.7933 24.6793C85.1297 25.3676 85.9137 26.5615 86.1452 28.2611C86.5069 28.2284 86.9061 28.1872 87.3522 28.1292C87.8688 28.0751 88.4449 27.9354 89.4035 27.7375C89.4843 27.729 89.9386 27.6173 90.0032 27.6106C90.5777 27.4854 93.4759 27.0656 95.3978 29.189C95.3868 29.2389 94.8898 29.189 93.4354 30.1507C91.7789 31.2459 90.1467 36.0458 88.6859 35.9711C88.6699 35.9708 88.637 35.9869 88.5873 36.0194L88.652 35.9584L87.7574 34.1339C87.5552 33.7649 87.2485 33.4881 86.8984 33.2647C86.6231 33.1309 86.3367 33.0471 86.0427 33.0454C85.2609 33.0622 84.4841 33.745 84.2443 34.5666C84.0207 35.3865 84.2593 36.2556 84.8889 36.8074C85.2866 37.1722 85.7998 37.3948 86.3428 37.4355L87.003 37.3539C86.9763 37.3776 86.9493 37.4017 86.922 37.4261C85.7964 39.1941 85.2337 40.0781 85.2337 40.0781C85.2337 40.0781 84.7462 39.9474 83.7714 39.686C82.5733 39.273 81.6435 37.7653 80.9818 35.1627ZM94.1912 33.9969C93.8768 34.1111 93.3686 34.2456 92.9046 34.1804C92.1288 34.099 92.7917 33.5745 93.4826 33.4697C93.8038 33.4198 94.0757 33.5214 94.2508 33.6331C94.3757 33.7338 94.3493 33.9479 94.1912 33.9969ZM96.9293 33.6454C96.6183 33.7917 96.1313 33.9727 95.6563 33.9574C94.8532 33.9277 95.4771 33.3422 96.1467 33.1908C96.4969 33.1054 96.7509 33.1926 96.9404 33.2866C97.0959 33.3678 97.0857 33.5802 96.9293 33.6454Z" fill="#482D1F"/>
<path d="M93.2857 36.0913C93.1039 35.9153 93.121 35.4583 93.1406 35.1799C93.1346 34.9692 93.3148 34.8203 93.4924 34.8017C93.6072 34.806 93.7593 34.8551 93.8153 35.0768C93.9843 35.5956 93.5296 36.3909 93.2857 36.0913ZM95.9482 35.7964C95.7986 35.617 95.7834 35.1634 95.803 34.885C95.7971 34.6743 95.9773 34.5254 96.1549 34.5068C96.2696 34.5111 96.4217 34.5602 96.4778 34.7819C96.6468 35.3006 96.1759 36.0977 95.9482 35.7964Z" fill="#482D1F"/>
<path d="M95.6565 34.5967C95.6592 34.5074 95.5887 34.4329 95.4991 34.4302C95.4095 34.4275 95.3346 34.4977 95.3319 34.587L95.3029 35.5491L95.3036 35.5693L95.4674 37.2749C95.4633 37.2946 95.4494 37.3088 95.4286 37.3131C95.2336 37.312 94.9831 37.312 94.6769 37.3132C94.5873 37.3135 94.5148 37.3861 94.5152 37.4754C94.5155 37.5647 94.5885 37.6368 94.6781 37.6365C94.9895 37.6353 95.243 37.6353 95.4384 37.6365L95.4563 37.6356C95.6449 37.6159 95.7817 37.4666 95.7927 37.2858L95.7922 37.2606L95.6278 35.5487L95.6565 34.5967Z" fill="#482D1F"/>
<path d="M94.681 38.9684C94.5662 38.9641 94.2688 38.9302 94.1856 38.7601C94.1822 38.728 94.1448 38.6831 94.1575 38.6493C94.1975 38.5638 94.698 38.5114 94.698 38.5114C95.3617 38.4582 95.5198 38.4091 95.5767 38.4845C95.598 38.531 95.6047 38.5953 95.507 38.7519C95.3905 39.0404 94.862 38.9819 94.681 38.9684Z" fill="#482D1F"/>
<path d="M120.207 72.5899L142.507 73.7537C143.591 73.8103 143.978 73.9432 144.364 74.1749C144.749 74.4066 145.044 74.7326 145.235 75.1383C145.426 75.544 145.518 75.9413 145.461 77.0208L145.312 79.8528C145.256 80.9323 145.122 81.3179 144.889 81.7015C144.657 82.0851 144.329 82.3785 143.922 82.5689C143.514 82.7593 143.115 82.8512 142.031 82.7946L119.732 81.6309C118.648 81.5743 118.26 81.4414 117.875 81.2096C117.49 80.9779 117.195 80.6519 117.004 80.2462C116.813 79.8405 116.721 79.4432 116.777 78.3637L116.926 75.5317C116.983 74.4522 117.117 74.0667 117.349 73.6831C117.582 73.2995 117.91 73.006 118.317 72.8156C118.724 72.6252 119.123 72.5334 120.207 72.5899Z" fill="#474BFF"/>
<path d="M96.5432 88.1575L49.6875 85.7122C49.5085 85.7029 49.3557 85.8399 49.3463 86.0182L49.1084 90.5387C49.099 90.717 49.2366 90.8691 49.4156 90.8785L96.2713 93.3237C96.4504 93.333 96.6032 93.1961 96.6126 93.0177L96.8505 88.4973C96.8599 88.3189 96.7223 88.1668 96.5432 88.1575Z" fill="#F2F6FB"/>
<path d="M126.875 89.8557L100.285 88.4681C100.106 88.4587 99.9533 88.5957 99.9439 88.7741L99.706 93.2945C99.6966 93.4728 99.8342 93.625 100.013 93.6343L126.603 95.0219C126.782 95.0313 126.935 94.8943 126.944 94.716L127.182 90.1955C127.191 90.0172 127.054 89.865 126.875 89.8557Z" fill="#F2F6FB"/>
<path d="M106.057 82.718C106.182 82.7681 106.324 82.708 106.374 82.5838C106.424 82.4596 106.364 82.3183 106.239 82.2682C105.456 81.9535 104.839 81.7283 103.461 81.2417C102.088 80.7574 101.476 80.5338 100.701 80.2225C100.577 80.1724 100.435 80.2325 100.384 80.3567C100.334 80.4809 100.394 80.6222 100.519 80.6723C101.303 80.987 101.919 81.2123 103.298 81.6988C104.67 82.1831 105.282 82.4067 106.057 82.718ZM108.482 80.9839C108.61 81.0262 108.748 80.9575 108.79 80.8305C108.833 80.7034 108.764 80.5661 108.636 80.5238C107.762 80.2338 107.09 79.9939 105.596 79.4477C104.098 78.8998 103.422 78.6587 102.542 78.3667C102.415 78.3244 102.277 78.3931 102.234 78.5202C102.192 78.6473 102.261 78.7846 102.388 78.8269C103.262 79.1168 103.935 79.3568 105.428 79.903C106.926 80.4508 107.602 80.6919 108.482 80.9839Z" fill="#482D1F"/>
<path d="M84.6519 57.8012C85.8764 54.4751 86.5878 52.0899 86.7868 50.6346C86.8049 50.5019 86.7116 50.3797 86.5783 50.3616C86.445 50.3436 86.3223 50.4365 86.3041 50.5692C86.1112 51.9803 85.4078 54.339 84.1946 57.6342C84.1483 57.76 84.2132 57.8993 84.3395 57.9454C84.4657 57.9915 84.6056 57.9269 84.6519 57.8012Z" fill="#482D1F"/>
</svg>
