<svg width="165" height="42" viewBox="0 0 165 42" fill="none" xmlns="http://www.w3.org/2000/svg">
<path d="M66.52 19.12C66.056 18.144 65.384 17.392 64.504 16.864C63.624 16.32 62.6 16.048 61.432 16.048C60.264 16.048 59.208 16.32 58.264 16.864C57.336 17.392 56.6 18.16 56.056 19.168C55.528 20.16 55.264 21.312 55.264 22.624C55.264 23.936 55.528 25.088 56.056 26.08C56.6 27.072 57.336 27.84 58.264 28.384C59.208 28.912 60.264 29.176 61.432 29.176C63.064 29.176 64.408 28.688 65.464 27.712C66.52 26.736 67.136 25.416 67.312 23.752H60.64V21.976H69.64V23.656C69.512 25.032 69.08 26.296 68.344 27.448C67.608 28.584 66.64 29.488 65.44 30.16C64.24 30.816 62.904 31.144 61.432 31.144C59.88 31.144 58.464 30.784 57.184 30.064C55.904 29.328 54.888 28.312 54.136 27.016C53.4 25.72 53.032 24.256 53.032 22.624C53.032 20.992 53.4 19.528 54.136 18.232C54.888 16.92 55.904 15.904 57.184 15.184C58.464 14.448 59.88 14.08 61.432 14.08C63.208 14.08 64.776 14.52 66.136 15.4C67.512 16.28 68.512 17.52 69.136 19.12H66.52ZM78.2637 31.216C77.0317 31.216 75.9117 30.936 74.9037 30.376C73.9117 29.816 73.1277 29.024 72.5517 28C71.9917 26.96 71.7117 25.76 71.7117 24.4C71.7117 23.056 71.9997 21.872 72.5757 20.848C73.1677 19.808 73.9677 19.016 74.9757 18.472C75.9837 17.912 77.1117 17.632 78.3597 17.632C79.6077 17.632 80.7357 17.912 81.7437 18.472C82.7517 19.016 83.5437 19.8 84.1197 20.824C84.7117 21.848 85.0077 23.04 85.0077 24.4C85.0077 25.76 84.7037 26.96 84.0957 28C83.5037 29.024 82.6957 29.816 81.6717 30.376C80.6477 30.936 79.5117 31.216 78.2637 31.216ZM78.2637 29.296C79.0477 29.296 79.7837 29.112 80.4717 28.744C81.1597 28.376 81.7117 27.824 82.1277 27.088C82.5597 26.352 82.7757 25.456 82.7757 24.4C82.7757 23.344 82.5677 22.448 82.1517 21.712C81.7357 20.976 81.1917 20.432 80.5197 20.08C79.8477 19.712 79.1197 19.528 78.3357 19.528C77.5357 19.528 76.7997 19.712 76.1277 20.08C75.4717 20.432 74.9437 20.976 74.5437 21.712C74.1437 22.448 73.9437 23.344 73.9437 24.4C73.9437 25.472 74.1357 26.376 74.5197 27.112C74.9197 27.848 75.4477 28.4 76.1037 28.768C76.7597 29.12 77.4797 29.296 78.2637 29.296ZM102.654 22.384C103.262 22.48 103.814 22.728 104.31 23.128C104.822 23.528 105.222 24.024 105.51 24.616C105.814 25.208 105.966 25.84 105.966 26.512C105.966 27.36 105.75 28.128 105.318 28.816C104.886 29.488 104.254 30.024 103.422 30.424C102.606 30.808 101.638 31 100.518 31H94.2777V14.272H100.278C101.414 14.272 102.382 14.464 103.182 14.848C103.982 15.216 104.582 15.72 104.982 16.36C105.382 17 105.582 17.72 105.582 18.52C105.582 19.512 105.31 20.336 104.766 20.992C104.238 21.632 103.534 22.096 102.654 22.384ZM96.4617 21.496H100.134C101.158 21.496 101.95 21.256 102.51 20.776C103.07 20.296 103.35 19.632 103.35 18.784C103.35 17.936 103.07 17.272 102.51 16.792C101.95 16.312 101.142 16.072 100.086 16.072H96.4617V21.496ZM100.326 29.2C101.414 29.2 102.262 28.944 102.87 28.432C103.478 27.92 103.782 27.208 103.782 26.296C103.782 25.368 103.462 24.64 102.822 24.112C102.182 23.568 101.326 23.296 100.254 23.296H96.4617V29.2H100.326ZM108.18 24.376C108.18 23.032 108.452 21.856 108.996 20.848C109.54 19.824 110.284 19.032 111.228 18.472C112.188 17.912 113.252 17.632 114.42 17.632C115.572 17.632 116.572 17.88 117.42 18.376C118.268 18.872 118.9 19.496 119.316 20.248V17.848H121.524V31H119.316V28.552C118.884 29.32 118.236 29.96 117.372 30.472C116.524 30.968 115.532 31.216 114.396 31.216C113.228 31.216 112.172 30.928 111.228 30.352C110.284 29.776 109.54 28.968 108.996 27.928C108.452 26.888 108.18 25.704 108.18 24.376ZM119.316 24.4C119.316 23.408 119.116 22.544 118.716 21.808C118.316 21.072 117.772 20.512 117.084 20.128C116.412 19.728 115.668 19.528 114.852 19.528C114.036 19.528 113.292 19.72 112.62 20.104C111.948 20.488 111.412 21.048 111.012 21.784C110.612 22.52 110.412 23.384 110.412 24.376C110.412 25.384 110.612 26.264 111.012 27.016C111.412 27.752 111.948 28.32 112.62 28.72C113.292 29.104 114.036 29.296 114.852 29.296C115.668 29.296 116.412 29.104 117.084 28.72C117.772 28.32 118.316 27.752 118.716 27.016C119.116 26.264 119.316 25.392 119.316 24.4ZM124.399 24.4C124.399 23.04 124.671 21.856 125.215 20.848C125.759 19.824 126.511 19.032 127.471 18.472C128.447 17.912 129.559 17.632 130.807 17.632C132.423 17.632 133.751 18.024 134.791 18.808C135.847 19.592 136.543 20.68 136.879 22.072H134.527C134.303 21.272 133.863 20.64 133.207 20.176C132.567 19.712 131.767 19.48 130.807 19.48C129.559 19.48 128.551 19.912 127.783 20.776C127.015 21.624 126.631 22.832 126.631 24.4C126.631 25.984 127.015 27.208 127.783 28.072C128.551 28.936 129.559 29.368 130.807 29.368C131.767 29.368 132.567 29.144 133.207 28.696C133.847 28.248 134.287 27.608 134.527 26.776H136.879C136.527 28.12 135.823 29.2 134.767 30.016C133.711 30.816 132.391 31.216 130.807 31.216C129.559 31.216 128.447 30.936 127.471 30.376C126.511 29.816 125.759 29.024 125.215 28C124.671 26.976 124.399 25.776 124.399 24.4ZM147.137 31L141.977 25.192V31H139.793V13.24H141.977V23.68L147.041 17.848H150.089L143.897 24.4L150.113 31H147.137Z" fill="white"/>
<path d="M9.23047 17.4385L31.443 17.4385C33.7399 17.4385 35.602 19.3006 35.602 21.5975L35.602 24.7638C35.602 27.0608 33.7399 28.9229 31.443 28.9229L13.9093 28.9229" stroke="white" stroke-width="2.08134" stroke-linejoin="round"/>
<path d="M13.4883 12.3351C11.495 14.3284 10.3774 15.446 8.38412 17.4393L13.4883 22.5435" stroke="white" stroke-width="2.08134" stroke-linejoin="round"/>
<rect y="39" width="164.5" height="2.33333" fill="white"/>
</svg>
