<svg width="229" height="304" viewBox="0 0 229 304" fill="none" xmlns="http://www.w3.org/2000/svg">
<path d="M86.5508 269.572C86.5508 269.572 93.6953 266.211 96.3626 263.873C99.0299 261.535 102.346 255.726 102.346 255.726C102.346 255.726 138.771 282.032 162.521 278.279C167.993 277.415 178.656 273.778 179.336 267.369C181.192 249.869 155.503 245.397 161.115 236.522C164.54 231.105 175.18 239.167 175.18 239.167L219.314 260.876C219.314 260.876 204.067 298.46 167.066 299.966C121.55 301.819 86.5508 269.572 86.5508 269.572Z" fill="white"/>
<path fill-rule="evenodd" clip-rule="evenodd" d="M51.5582 122.384C51.144 122.221 48.9194 119.497 46.0952 119.001C44.8119 118.776 45.9767 120.41 44.5643 120.425C40.3577 120.469 33.5216 119.678 32.2552 120.425C31.314 120.978 33.3869 122.91 32.2552 122.999C21.5786 123.836 5.29061 134.496 1.75676 139.668C0.632124 141.313 9.72788 138.521 8.27867 139.335C6.65209 140.248 4.84811 146.228 3.76953 150.846C3.02282 154.027 2.55266 158.12 2.38673 162.573C2.24845 166.417 2.30376 167.053 2.85688 169.155C3.49297 171.506 3.99078 172.197 4.84811 171.865C5.15233 171.754 5.29061 171.34 5.29061 170.565C5.29061 169.957 5.62248 168.131 6.03732 166.5L6.75638 163.568L7.0606 164.785C7.44778 166.196 9.71557 170.565 11.7621 173.746C11.8725 173.914 12.3474 173.7 12.7756 172.665C13.1658 171.721 13.0075 170.215 13.6704 168.6C15.1804 164.921 18.1454 160.138 21.5786 156.31C26.6526 150.651 28.336 144.103 33.0923 138.846C41.9685 129.037 53.1088 122.992 51.5582 122.384Z" fill="white"/>
<path fill-rule="evenodd" clip-rule="evenodd" d="M8.40523 140.67C6.98136 141.815 4.86778 151.102 4.83153 151.257C4.08482 154.437 3.36503 165.482 4.10078 167.573C4.83653 169.664 6.89674 162.126 6.89674 162.126C6.89674 162.126 10.0107 170.212 12.7622 172.429C12.8798 172.524 9.49168 162.425 8.40523 156.53C6.97106 148.747 9.2156 140.018 8.40523 140.67Z" fill="#E7EAEE"/>
<path fill-rule="evenodd" clip-rule="evenodd" d="M61.4729 303.321C64.1279 302.74 68.6076 300.718 70.3228 300.026C72.0381 299.334 77.2645 291.954 79.1451 283.63C80.5003 277.49 81.1917 268.751 80.4173 267.285C80.3029 267.077 79.8846 263.103 80.9982 264.401C83.4736 267.285 86.4118 271.813 95.6831 263.699C98.2084 261.489 101.555 258.637 100.674 256.115C98.2083 249.06 87.5199 234.854 85.8905 233.778C83.9422 232.491 74.095 233.585 59.4404 229.259C42.821 224.354 35.9006 209.91 29.3969 211.79C24.1373 213.31 11.5358 222.655 8.37316 228.573C-6.55748 256.51 11.5358 276.086 15.6563 281.708L19.657 283.436L19.7953 287.004L19.9889 289.244C20.3484 293.531 20.4867 293.918 22.4226 295.356C27.2624 299.034 36.8037 302.463 45.4324 303.68C49.4425 304.233 58.1542 304.04 61.4729 303.321Z" fill="white"/>
<path fill-rule="evenodd" clip-rule="evenodd" d="M21.2331 285.698L21.4267 287.938C21.7863 292.225 21.9245 292.612 23.8605 294.05C26.7156 296.22 31.207 298.303 36.182 299.897C39.6401 301.004 43.3319 301.875 46.8703 302.374C50.8804 302.928 59.592 302.734 62.9108 302.015C64.5512 301.66 51.0579 291.059 43.109 294.05C37.0046 296.347 22.6166 278.825 28.4665 274.248C35.0289 269.113 23.0038 248.859 22.6166 244.462C22.2294 240.065 20.7046 239.014 20.6601 239.169C20.6156 239.323 20.6156 239.849 20.7353 241.116C21.2513 246.58 21.2331 285.698 21.2331 285.698Z" fill="#E7EAEE"/>
<path fill-rule="evenodd" clip-rule="evenodd" d="M19.7924 243.206C20.373 243.093 20.9353 243.473 21.0483 244.053C23.1356 254.777 31.9645 262.036 47.752 265.833C63.6333 269.651 74.4509 269.445 80.1508 265.369C80.6319 265.025 80.2732 267.972 79.9208 268.198C76.2032 270.582 63.5638 274.139 48.4805 270.924C29.1949 266.813 20.1397 250.597 18.9457 244.462C18.8327 243.882 19.2118 243.319 19.7924 243.206Z" fill="#FFB61D"/>
<path fill-rule="evenodd" clip-rule="evenodd" d="M11.7502 223.859C12.2637 223.565 31.4186 245.518 57.7056 250.487C83.9926 255.457 90.3572 252.296 91.3803 245.518C91.4686 244.933 92.0143 244.531 92.5992 244.619C93.1841 244.707 93.5867 245.253 93.4984 245.838C92.2018 254.428 80.0382 256.471 57.3453 252.599C34.9374 248.775 19.5746 239.69 11.3525 225.32C11.0588 224.807 11.2368 224.153 11.7502 223.859Z" fill="#FFB61D"/>
<path fill-rule="evenodd" clip-rule="evenodd" d="M122.08 222.642C121.361 222.393 120.586 221.84 120.088 221.204L119.259 220.18L122.19 217.276C126.698 212.852 130.155 208.316 133.142 202.923C134.138 201.125 136.654 195.124 136.654 194.543C136.654 194.35 136.959 193.575 137.318 192.773C137.871 191.612 138.286 191.169 139.475 190.505C140.886 189.676 142.49 189.399 143.181 189.869C144.509 190.754 144.509 193.548 143.181 198.36C141.715 203.642 139.752 207.431 135.686 212.879C135.05 213.709 133.861 215.341 133.004 216.474C130.708 219.517 129.215 220.982 127.196 222.116C125.205 223.223 124.043 223.361 122.08 222.642ZM141.938 220.153L143.93 221.038C144.342 221.228 148.897 223.417 154.369 226.046C163.19 230.284 174.394 235.668 174.462 235.668C174.572 235.668 175.091 234.468 175.209 233.068C175.485 230.054 176.508 225.96 177.698 223.112C178.251 221.84 178.693 220.25 178.693 220.111C178.693 220.048 178.244 219.867 177.508 219.57C176.631 219.217 175.349 218.7 173.936 218.023C166.967 214.677 153.333 207.846 151.646 206.823C149.986 205.855 149.654 205.772 149.654 206.408C149.654 207.237 147.967 211.082 146.668 213.156C145.976 214.29 144.621 216.336 143.653 217.691L141.938 220.153ZM173.993 230.69C174.786 231.149 173.412 231.824 173.08 231.934C171.126 232.1 168.825 231.733 166.94 230.634C165.955 229.935 158.194 225.624 153.047 222.764C150.693 221.457 148.886 220.453 148.521 220.236C147.36 219.544 146.254 218.798 146.06 218.576C145.479 217.83 146.032 217.498 147.664 217.636C148.645 217.719 172.28 229.697 173.993 230.69ZM61.5708 303.093C63.7042 302.626 67.0156 301.229 69.1244 300.339L69.1277 300.338C69.642 300.121 70.0845 299.934 70.4208 299.798C72.136 299.107 77.3624 291.726 79.243 283.402C80.5982 277.262 81.2896 268.523 80.5152 267.057C80.0483 266.208 82.8223 269.056 84.888 271.177L84.89 271.179L84.8945 271.184L84.9011 271.191L84.9016 271.191C85.5223 271.828 86.078 272.399 86.4613 272.782C98.5193 284.757 116.468 294.381 135.108 298.889C144.401 301.157 151.01 301.959 159.888 301.959C174.795 301.959 186.548 299.028 197.224 292.584C197.731 292.278 198.206 291.996 198.659 291.728C202.38 289.525 204.597 288.213 210.664 281.383C217.47 273.722 223.524 255.94 225.543 249.8C226.428 247.034 228.586 236.034 228.586 233.289C228.586 230.039 227.452 228.505 225.903 226.928C223.165 224.246 219.459 223.278 216.389 224.439L214.951 224.993L214.509 223.527C213.873 221.314 212.545 219.544 210.498 218.217C207.456 216.198 207.014 216.06 204.276 216.06C202.146 216.06 201.566 216.17 200.21 216.806L198.634 217.525L198.302 216.53C197.666 214.483 195.533 211.63 193.877 210.805C192.409 210.073 189.868 210.006 188.097 210.335C184.225 211.054 181.46 212.852 180.326 215.368C179.994 216.143 179.579 216.751 179.413 216.751C179.275 216.751 173.827 215.229 167.327 212.353C166.231 211.866 165.201 211.41 164.234 210.981C152.563 205.808 150.034 204.687 150.264 203.283C150.457 202.093 150.402 201.43 150.07 200.406C149.489 198.692 148.826 198.221 146.945 198.221C145.452 198.221 145.452 198.221 145.617 197.475C146.502 193.243 146.475 190.81 145.535 189.261C144.898 188.238 144.152 187.823 142.437 187.574C141.441 187.436 140.971 187.519 139.865 188.127C139.118 188.514 138.482 188.791 138.427 188.735C138.372 188.68 138.565 187.159 138.869 185.361C141.137 172.059 139.385 160.597 133.605 148.429C133.552 148.317 133.491 148.186 133.422 148.037L133.418 148.031L133.412 148.018L133.412 148.017C131.655 144.245 124.59 129.075 104.382 121.421C103.468 121.074 102.602 120.739 101.771 120.417L101.77 120.417C94.8872 117.753 90.3113 115.982 79.2707 116C66.896 116.021 62.7047 117.77 54.5462 121.504C53.4123 122.029 52.4167 122.333 52.3337 122.223C52.2508 122.084 51.7253 121.753 51.1998 121.476C50.6744 121.199 49.5405 120.508 48.7108 119.955C46.3324 118.351 44.8666 117.687 44.1199 117.853C43.2626 118.074 43.2626 118.793 44.1199 119.125C44.4794 119.264 44.8943 119.734 45.0602 120.204C45.4197 121.199 45.8346 121.31 46.0835 120.48C46.1941 120.176 46.36 119.955 46.443 120.01C46.4744 120.026 46.5796 120.075 46.74 120.15L46.7404 120.151C47.1447 120.34 47.8994 120.693 48.7108 121.089C49.8447 121.642 51.0892 122.223 51.4211 122.361C52.0295 122.582 51.8359 122.748 49.2086 124.297C38.9482 130.326 30.5961 139.701 25.9222 150.377C25.2032 151.981 24.5671 152.976 23.9033 153.529C22.2163 154.94 18.8976 158.95 18.1232 160.526C17.7084 161.384 16.8234 162.711 16.132 163.486C15.4683 164.26 14.7492 165.256 14.5003 165.67C14.2791 166.113 14.0578 166.417 13.9748 166.362C13.9195 166.279 14.0025 164.924 14.1961 163.347C14.6109 159.669 14.6109 158.701 14.2791 158.618C13.7812 158.48 13.0622 160.416 12.758 162.822C12.5367 164.288 12.4814 166.5 12.6197 168.768L12.7856 172.363L10.8221 169.183C10.146 168.118 9.48024 167.053 9.0079 166.298L9.00742 166.297L9.00724 166.296L9.0072 166.296C8.70701 165.816 8.48504 165.461 8.38832 165.311C7.66927 164.26 7.25443 162.683 7.55864 162.158C7.72458 161.854 7.69692 161.716 7.42036 161.716C6.83959 161.716 5.70569 163.568 4.95898 165.698C4.59945 166.694 4.23992 167.523 4.1293 167.523C3.71446 167.523 3.90805 157.622 4.35054 154.442C5.26319 148.164 7.66927 140.42 8.74785 140.42C8.9691 140.42 9.16269 140.31 9.16269 140.144C9.16269 139.646 8.44364 139.84 7.86286 140.476C6.56303 141.886 4.84835 146.228 3.76977 150.847C3.02306 154.027 2.5529 158.12 2.38697 162.573C2.24869 166.417 2.304 167.053 2.85712 169.155C3.49321 171.506 3.99102 172.197 4.84835 171.865C5.15257 171.755 5.29085 171.34 5.29085 170.565C5.29085 169.957 5.62272 168.132 6.03756 166.5L6.75662 163.568L7.06083 164.785C7.44802 166.196 9.71581 170.565 11.7624 173.746C13.1728 175.903 13.2005 176.041 13.6706 179.415C13.9195 181.324 14.6939 185.965 16.4915 193.105C18.0799 199.414 27.009 205.672 29.2385 207.234C29.5323 207.44 29.7098 207.565 29.7388 207.597C30.0153 207.901 30.4025 208.067 30.6238 207.984C30.8727 207.901 31.0109 208.012 31.0109 208.316C31.0109 208.592 31.2045 208.952 31.4258 209.118C31.7023 209.312 31.8959 210.058 31.9512 211.358C32.0895 213.958 34.0255 218.936 35.5189 220.568C36.4868 221.618 38.5057 222.061 40.7459 221.674C42.2116 221.453 42.6265 221.287 42.4882 220.955C42.4052 220.733 42.9307 221.01 43.6497 221.563C52.0572 227.979 60.5752 231.824 70.1442 233.483C73.8501 234.119 79.9897 234.479 83.3361 234.23C86.2953 234.036 86.2953 234.036 86.157 234.617C85.9634 235.391 86.2124 235.861 90.2778 242.748C93.5135 248.196 93.7901 248.555 97.3854 252.234C105.018 260.116 113.343 266.228 122.774 270.957C131.651 275.382 145.825 279.06 158.782 280.222C171.739 281.383 181.045 269.491 181.017 266.449C180.962 262.273 180.381 259.535 178.971 256.88C177.588 254.308 176.675 253.423 172.527 250.657C167.908 247.587 165.06 245.071 163.179 242.388C161.99 240.701 161.547 238.793 161.547 237.77C161.547 237.106 162.405 235.612 163.677 235.308C164.838 235.004 165.06 235.032 166.359 235.668C167.134 236.027 169.153 236.968 170.812 237.77C172.499 238.544 174.131 239.318 174.463 239.484C175.441 239.756 175.855 241.671 176.079 242.709L176.079 242.71C176.129 242.941 176.17 243.129 176.205 243.245C176.592 244.684 178.425 246.54 179.607 247.173C181.683 248.283 186.798 248.431 188.208 246.91C188.568 246.523 189.76 246.047 190.005 246.191C190.251 246.335 191.139 247.532 191.139 248.5C191.167 250.159 192.024 251.681 193.85 253.202C197.307 256.078 199.989 256.769 202.699 255.497C204.11 254.833 205.266 254.574 205.266 254.574C205.266 254.574 206.419 256.045 206.488 256.548C207.032 260.477 212.849 262.125 214.398 262.291C214.753 262.326 215.444 262.174 216.145 262.02C217.083 261.814 218.041 261.603 218.242 261.83C218.637 262.276 211.632 273.861 210.664 275.326C201.455 289.154 183.534 297.617 161.603 298.502C147.36 299.083 129.854 295.1 114.67 287.855C104.963 283.181 96.3621 277.456 87.1527 269.436C85.5486 268.053 83.6957 266.477 83.0319 265.923C82.3682 265.398 80.7918 263.6 79.5749 261.941C77.5284 259.175 76.3668 258.18 76.3668 259.12C76.3668 259.535 77.6943 262.079 79.2154 264.596C79.8238 265.592 80.211 266.283 80.0727 266.172C79.9344 266.062 79.4919 268.053 79.0771 270.597C77.722 278.756 75.4818 286.804 73.214 291.809C71.9695 294.52 69.5832 296.544 68.8642 297.097C66.2092 299.116 62.2346 300.023 56.731 300.576C49.7617 301.268 39.5013 299.719 31.6747 296.788C29.6005 296.013 24.2629 293.773 23.9033 293.524C23.8818 293.503 23.7593 292.707 23.5883 291.597L23.5446 291.313C23.509 291.083 23.4718 290.841 23.4332 290.593C22.4376 283.762 21.0548 257.461 21.0548 245.292C21.0548 240.259 20.9995 239.152 20.6676 239.152C19.9762 239.152 19.6996 239.816 19.3954 242.195C18.704 247.615 18.8423 275.907 19.589 281.853L19.7549 283.208L18.8146 282.683C17.3765 281.853 11.9006 276.294 9.99237 273.722C8.37687 271.524 7.41671 268.707 6.69835 266.601C6.53127 266.111 6.37727 265.659 6.23115 265.262C2.22103 254.145 3.63149 241.669 9.16269 230.441C13.8642 220.872 19.6443 215.562 28.1071 212.99C29.4899 212.575 30.7067 212.132 30.845 212.022C31.3705 211.524 27.9964 211.773 26.1435 212.354C20.1145 214.207 13.8089 219.268 9.52222 225.739C3.49321 234.81 0.782919 248.196 2.69118 259.618C3.13368 262.328 4.93132 268.191 5.42913 268.606C5.4732 268.65 5.70067 269.127 6.04468 269.849C6.99588 271.844 8.83812 275.709 10.1583 277.456C11.7624 279.641 16.6022 284.398 18.621 285.863L19.8932 286.776L20.0868 289.016C20.4463 293.303 20.5846 293.69 22.5205 295.128C27.3604 298.806 36.9017 302.236 45.5304 303.453C49.5405 304.006 58.2521 303.812 61.5708 303.093ZM155.045 277.124C138.976 275.714 119.562 268.052 105.513 256.216C99.5942 251.21 91.9059 241.475 88.8637 236.083C88.2276 234.976 87.7575 234.451 87.2043 234.313C86.6236 234.147 87.1214 233.981 89.4998 233.593C99.5389 231.879 109.301 227.703 117.183 221.757L118.345 220.899L118.677 221.701C119.424 223.499 122.3 225.324 124.429 225.324C125.287 225.324 128.163 224.025 129.905 222.835L131.094 222.033L132.062 223.001C132.947 223.886 133.113 223.942 134.773 223.942C136.681 223.942 138.976 223.084 140.249 221.867L140.94 221.231L142.904 222.531C143.954 223.278 146.886 224.91 149.403 226.209C153.164 228.145 157.146 230.385 160.935 232.709L161.544 233.096L160.963 233.87C160.355 234.7 159.221 236.276 159.221 238.682C159.221 241.392 162.039 246.262 167.434 249.606C171.673 252.234 178.967 257.402 178.69 264.955C178.657 265.868 177.64 268.136 176.284 270.182C175.399 271.482 172.938 273.418 170.698 274.552C166.881 276.46 160.161 277.567 155.045 277.124ZM7.58262 152.976C8.32933 153.142 8.82714 153.391 8.71651 153.501C8.35699 153.861 6.44872 153.695 6.00622 153.253C5.31482 152.589 5.48076 152.119 6.44872 151.925C6.94653 151.842 7.69324 151.427 8.10808 151.012C8.52292 150.598 8.88245 150.404 8.88245 150.542C8.88245 150.902 7.49965 152.174 6.80825 152.451C6.36575 152.644 6.50403 152.727 7.58262 152.976ZM18.5944 153.419C19.3964 152.976 19.2305 152.672 18.2902 152.81C17.3499 152.949 17.2946 152.838 17.903 151.898C18.1519 151.538 18.2902 151.013 18.2349 150.736C18.1519 150.377 17.9583 150.542 17.5158 151.427C17.184 152.064 16.7138 152.589 16.4926 152.589C15.8012 152.589 15.7458 153.142 16.4096 153.391C17.2669 153.751 17.9307 153.751 18.5944 153.419ZM9.02296 138.318C8.35921 138.429 6.28501 139.259 4.45971 140.171C2.60676 141.056 1.03037 141.803 0.919744 141.775C-1.90117 141.471 2.02599 136.77 9.16124 131.958C15.9923 127.339 20.6108 124.905 24.8975 123.661C27.5801 122.886 30.5946 122.776 31.452 123.412C31.9221 123.771 31.7562 123.799 29.7097 123.827C25.2847 123.827 20.1683 126.094 11.8439 131.653C7.52953 134.53 2.52379 138.65 2.52379 139.314C2.52379 139.452 3.32582 139.176 4.32143 138.733C6.45095 137.765 8.63577 137.268 9.60373 137.489C10.627 137.765 10.4058 138.125 9.02296 138.318ZM19.7259 140.697C22.3256 140.171 22.4362 140.144 22.4362 139.867C22.4362 139.729 21.4406 139.591 20.1961 139.535L17.9559 139.452L20.0302 137.101C21.164 135.802 22.4915 134.502 22.9617 134.198C23.985 133.534 24.0403 133.064 23.2106 132.787L22.5745 132.594L23.2659 132.345C23.6531 132.206 24.3721 132.151 24.87 132.234C25.6167 132.345 25.7826 132.289 25.6996 131.902C25.6167 131.515 25.3125 131.432 23.9573 131.46C20.0025 131.515 18.3155 132.566 21.413 133.064C22.2703 133.202 22.9893 133.423 22.9893 133.562C22.9893 133.672 22.8511 133.783 22.6851 133.783C22.1597 133.783 17.707 138.291 17.1539 139.397C16.2966 141.029 16.7667 141.278 19.7259 140.697ZM37.9796 129.966C37.1776 130.022 36.984 130.16 37.0393 130.547L37.0478 130.604C37.0789 130.808 37.0967 130.926 37.0509 130.961C36.989 131.009 36.811 130.909 36.3928 130.671L36.3203 130.63C35.7948 130.354 35.7395 130.215 36.0437 129.994C36.2373 129.828 36.7628 129.579 37.1776 129.496L37.952 129.303L37.3712 128.694C37.067 128.335 36.901 128.003 36.984 127.892C37.2053 127.671 39.9155 127.975 40.3027 128.279C40.4687 128.418 40.7176 128.39 40.8835 128.224C41.2707 127.837 41.7962 128.141 41.7962 128.75C41.7962 129.081 41.7132 129.109 41.4643 128.86C41.243 128.639 41.0494 128.639 40.8005 128.833C40.5793 129.026 40.4133 129.026 40.2751 128.805C40.1921 128.667 39.6666 128.528 39.1135 128.528C38.6032 128.528 38.362 128.528 38.3127 128.626C38.2685 128.713 38.3788 128.878 38.5881 129.192C39.0292 129.881 39.0031 129.883 37.989 129.966L37.9796 129.966ZM33.7773 122.61C33.7773 122.25 33.4454 121.614 33.0305 121.199L32.2562 120.425L36.4046 120.591C38.7 120.702 41.2997 120.95 42.2123 121.199C43.125 121.421 44.1759 121.587 44.5631 121.587C45.1439 121.587 45.0333 121.476 43.9547 120.895C42.0741 119.927 39.668 119.457 35.0494 119.125C29.5182 118.738 26.725 119.263 27.2504 120.646C27.3334 120.923 27.7759 121.061 28.4396 121.061C29.7948 121.061 32.0073 121.863 32.754 122.61C33.556 123.412 33.7773 123.412 33.7773 122.61ZM20.2766 195.843C22.5167 198.719 25.4759 201.983 26.8587 203.089C27.6884 203.753 28.4075 204.306 28.4628 204.306C28.4904 204.306 27.882 203.034 27.1076 201.485C23.9825 195.262 22.1572 189.067 21.2999 181.932C21.1063 180.356 20.8021 179.028 20.4702 178.475C19.8064 177.369 19.8064 175.931 20.4979 174.575C20.8574 173.856 21.051 172.944 21.051 171.948V170.427L19.7235 171.81C18.4236 173.165 17.1791 173.718 17.1791 172.888C17.1791 172.28 19.2257 169.348 20.3043 168.436C21.1616 167.717 21.2722 167.468 21.5488 165.311C21.7424 164.011 22.1849 161.715 22.5444 160.194C22.9316 158.673 23.1528 157.373 23.0975 157.318C22.9039 157.125 16.4048 164.589 15.5198 166.97C15.3255 167.493 14.8007 168.408 14.3859 168.961L13.6668 169.885C13.6668 169.885 13.8902 171.177 14.137 172.802C14.3863 174.444 14.5033 175.572 14.6075 176.577C14.7469 177.922 14.8634 179.045 15.2432 180.881C15.6857 183.149 16.1282 185.112 16.2388 185.251C16.3218 185.417 16.6813 186.689 17.0408 188.099C17.8152 191.224 19.115 194.322 20.2766 195.843ZM132.508 222.006L131.927 221.425C131.927 221.425 141.567 209.178 143.294 204.665C144.612 201.222 145.388 200.245 146.434 200.245C147.02 200.245 147.497 200.379 147.719 200.711C148.106 201.291 148.479 202.01 147.981 204.472C147.152 208.454 145.879 211.082 142.063 216.751C141.178 218.051 140.044 219.489 139.546 219.987C138.385 221.065 135.771 222.172 134.25 222.421C133.282 222.559 133.006 222.504 132.508 222.006Z" fill="#00160A"/>
<path d="M209.086 249.06C212.526 239.686 212.006 237.689 211.409 237.493C211.409 237.493 210.095 238.24 209.514 239.816C208.436 242.775 204.744 250.519 203.361 251.902C201.729 253.534 201.729 253.534 200.07 253.534C198.411 253.534 193.625 251.035 192.973 248.571C191.931 244.63 196.419 230.939 196.53 230.164L195.783 229.639C195.285 230.109 188.81 249.745 180.296 244.628C179.321 244.043 177.254 241.282 177.088 239.816C176.166 235.557 180.395 220.665 181.114 217.605C181.757 214.867 185.108 212.326 189.229 212.326C195.562 212.326 194.711 217.862 197.548 219.813C198.805 220.677 200.871 219.11 201.508 218.991C205.076 218.328 206.443 219.1 209.058 221.176C211.077 222.778 212.571 225.949 214.215 227.067C215.128 227.688 216.097 226.839 216.415 226.68C217.716 226.026 220.508 226.514 221.282 227.067C222.417 227.562 225.199 230.236 225.639 231.791C227.63 238.84 221.341 254.468 218.966 257.399C215.036 262.252 205.645 258.435 209.086 249.06Z" fill="white"/>
<path fill-rule="evenodd" clip-rule="evenodd" d="M50.098 223.373C57.6757 228.158 65.4893 231.283 74.3946 232.14C81.4192 232.804 90.8906 231.892 97.694 229.679C103.419 227.826 111.162 222.693 116.334 218.351C126.373 209.944 132.707 196.811 135.472 182.873C135.859 180.909 136.45 175.973 136.422 171.078C136.422 165.381 133.915 149.812 126.318 140.835C110.649 122.321 84.8936 113.98 63.2478 121.107C55.4394 123.677 47.1257 128.335 40.8478 134.419C32.9382 142.135 27.1028 152.645 24.7797 163.375C22.3459 174.714 25.5118 188.265 31.0153 199.383C35.4126 208.233 42.6585 218.644 50.098 223.373ZM123.941 189.953C118.742 205.578 105.19 217.249 88.1543 220.789C85.5546 221.314 83.757 221.508 80.1064 221.563C77.5344 221.646 74.9623 221.619 74.4369 221.563C62.5171 220.125 53.446 215.728 45.0938 207.376C41.4432 203.698 39.8945 201.706 37.6267 197.779C34.0591 191.557 32.1508 185.196 31.5701 177.535C29.5788 151.289 48.3573 129.414 74.7964 127.146C85.1674 126.261 96.6723 129.441 105.412 135.636C108.647 137.932 114.51 143.739 116.336 146.45C117.082 147.528 124.328 158.12 125.601 164.205C127.232 172.114 126.596 182.015 123.941 189.953Z" fill="white"/>
<path fill-rule="evenodd" clip-rule="evenodd" d="M136.424 171.078C136.424 189.641 127.643 209.935 116.311 218.602C110.905 222.737 103.839 227.744 97.6861 229.679C88.6691 232.514 74.3867 232.14 74.3867 232.14C74.3867 232.14 88.9577 230.192 94.3574 228.019C109.842 221.788 118.294 212.222 123.513 203.044C133.816 184.927 136.424 170.627 136.424 171.078Z" fill="#E7EAEE"/>
<path fill-rule="evenodd" clip-rule="evenodd" d="M74.7062 218.244C67.322 217.304 59.9932 214.677 54.0748 210.777C50.5625 208.482 45.2525 203.089 42.6805 199.245C39.0023 193.713 36.5686 187.795 35.3793 181.434C34.522 176.815 34.5497 169.708 35.407 165.587C36.292 161.383 37.4259 158.175 39.4448 154.11C41.7955 149.408 44.2846 145.951 48.0181 142.218C54.379 135.857 61.7632 131.819 70.5578 129.883C73.4064 129.275 83.7221 128.777 84.0816 129.247C84.1646 129.385 84.7177 129.745 85.2985 130.049C85.8792 130.381 87.428 131.543 88.7001 132.676C90.6084 134.336 91.4657 135.387 93.1251 137.986C94.259 139.756 95.1716 141.36 95.1716 141.499C95.1716 141.803 96.0566 142.356 96.5544 142.356C97.2458 142.356 97.716 140.282 97.8543 136.631C97.9372 134.612 98.1032 132.953 98.2138 132.953C98.601 132.953 102.86 135.304 104.851 136.631C108.751 139.231 112.65 142.882 115.526 146.698C116.826 148.413 117.02 148.855 117.02 149.906C117.02 150.874 117.296 151.621 118.154 153.114C120.311 156.875 121.998 161.605 123.021 166.832C123.685 170.344 123.685 176.981 122.994 180.66C121.113 190.782 115.526 200.849 108.253 207.237C102.086 212.63 95.5312 215.949 87.7875 217.58C85.1325 218.161 77.1676 218.548 74.7062 218.244ZM54.9326 199.327C55.1815 199.051 55.3474 198.636 55.2645 198.442C55.2395 198.384 54.8933 198.221 54.3864 197.983C53.2048 197.428 51.1505 196.462 50.2603 195.455C46.7203 191.418 45.4205 188.403 44.6184 182.181C43.8441 176.124 44.4946 172.029 45.8906 165.449C46.5716 162.239 48.3816 159.587 49.5077 157.937C50.2734 156.815 50.7229 156.157 50.2864 156.101C49.2078 155.935 49.0418 156.018 47.908 157.097C45.4742 159.42 44.368 161.273 43.2064 164.84C41.4088 170.427 41.0614 185.524 44.6184 192.33C48.1755 199.136 54.2965 200.046 54.9326 199.327ZM94.2593 176.097C93.7897 180.393 91.798 186.606 89.4749 189.316C88.3963 190.588 84.4371 192.773 81.0951 192.331C77.8671 191.903 75.3426 190.395 73.1855 187.159C71.3325 184.366 70.3755 180.975 69.7285 176.705C68.6111 169.331 73.4897 160.747 75.5915 158.618C77.7211 156.433 79.2421 155.659 81.1781 155.631C83.0587 155.631 84.2755 156.046 86.1838 157.401C89.6684 159.835 95.172 167.748 94.2593 176.097ZM56.9793 153.225C57.5324 152.589 57.6154 152.285 57.4495 151.095C57.3388 149.989 57.1176 149.547 56.5368 149.076C55.5135 148.247 54.2414 148.247 53.3011 149.132C52.6373 149.768 52.5543 149.989 52.6373 151.51C52.7203 153.142 52.7756 153.252 53.6882 153.75C54.9051 154.414 56.0943 154.22 56.9793 153.225ZM74.2369 136.161C69.2588 139.729 67.1016 141.194 64.8615 142.577C63.0915 143.684 62.5384 143.711 62.5384 142.716C62.5384 142.19 62.9256 141.609 63.9212 140.697L65.304 139.424L62.6214 139.065C59.6069 138.678 56.6753 137.848 56.0392 137.212C54.9883 136.133 55.9009 135.885 58.8878 136.438C60.2153 136.659 62.7873 136.935 64.6126 136.991L67.9313 137.129L70.3374 135.387C75.6197 131.57 81.0956 129.413 83.7229 130.077C85.3546 130.464 85.161 130.906 83.3081 131.128C81.1785 131.377 79.8787 132.096 74.2369 136.161Z" fill="white"/>
<path d="M81.3438 188.542C81.3438 188.403 81.5097 188.265 81.7309 188.265C81.9522 188.265 82.2287 188.403 82.3117 188.542C82.3947 188.708 82.2287 188.818 81.9245 188.818C81.5927 188.818 81.3438 188.708 81.3438 188.542Z" fill="white"/>
<path d="M83.0039 188.293C83.0039 187.989 83.6953 187.712 84.4697 187.712C85.0781 187.74 85.0781 187.74 84.5526 188.127C83.9442 188.597 83.0039 188.68 83.0039 188.293Z" fill="white"/>
<path d="M78.7179 187.574C78.6349 187.352 78.5243 186.965 78.4413 186.744C78.3583 186.467 78.4966 186.329 78.8561 186.329C79.1604 186.329 79.4093 186.495 79.4093 186.716C79.4093 186.938 79.4922 187.297 79.5752 187.546C79.6858 187.85 79.6029 187.988 79.2986 187.988C79.0497 187.988 78.7732 187.795 78.7179 187.574Z" fill="white"/>
<path d="M80.18 186.883C80.0417 186.053 80.3459 185.776 81.3415 185.776C81.6457 185.776 81.8946 186.053 82.0053 186.523C82.2265 187.325 81.867 187.712 80.899 187.712C80.4565 187.712 80.2629 187.519 80.18 186.883Z" fill="white"/>
<path d="M77.3601 187.021C76.8346 186.606 76.8346 186.606 77.4154 186.606C77.7749 186.606 78.0238 186.772 78.0238 187.021C78.0238 187.519 78.0238 187.519 77.3601 187.021Z" fill="white"/>
<path d="M82.9186 186.993C82.559 186.633 82.725 185.555 83.1675 185.389C83.9695 185.085 84.329 185.223 84.495 185.942C84.6056 186.357 84.6609 186.716 84.6056 186.744C84.3843 186.993 83.0845 187.159 82.9186 186.993Z" fill="white"/>
<path d="M85.3808 186.412C85.2978 186.329 85.2148 185.97 85.2148 185.638C85.2148 185.168 85.4361 184.974 86.0998 184.836C86.6806 184.725 87.0401 184.781 87.2061 185.002C87.4826 185.445 87.4826 185.998 87.2337 186.136C86.7359 186.412 85.5744 186.578 85.3808 186.412Z" fill="white"/>
<path d="M76.0898 185.555C76.0898 185.223 76.3387 184.947 76.6983 184.864C77.4173 184.67 77.3897 184.642 77.528 185.361C77.5833 185.776 77.445 185.942 76.8642 185.997C76.2558 186.08 76.0898 185.97 76.0898 185.555Z" fill="white"/>
<path d="M78.1924 185.583C77.8052 185.168 78.0541 184.394 78.5796 184.394C78.9391 184.394 79.1327 184.587 79.1327 184.919C79.1327 185.444 78.4966 185.887 78.1924 185.583Z" fill="white"/>
<path d="M79.8471 184.753C79.6259 184.228 80.096 183.84 81.0087 183.84C81.4235 183.84 81.6171 184.006 81.6171 184.366C81.6171 184.67 81.3682 184.947 81.0087 185.057C80.096 185.278 80.0407 185.278 79.8471 184.753Z" fill="white"/>
<path d="M87.8434 184.67C87.9263 184.532 88.0646 184.394 88.1476 184.394C88.2306 184.394 88.2029 184.532 88.1199 184.67C88.037 184.836 87.8987 184.947 87.8157 184.947C87.7328 184.947 87.7604 184.836 87.8434 184.67Z" fill="white"/>
<path d="M82.3382 184.2C82.117 183.647 82.3935 183.37 83.2785 183.232C83.7763 183.177 83.9976 183.287 84.0529 183.675C84.2465 184.587 82.6701 185.085 82.3382 184.2Z" fill="white"/>
<path d="M75.7046 183.73C75.4557 182.817 75.511 182.734 76.23 182.734C76.6172 182.734 76.9214 182.845 76.9214 182.983C76.9214 183.122 77.0044 183.426 77.0874 183.647C77.1703 183.924 77.0044 184.09 76.5342 184.172C76.0088 184.283 75.8152 184.172 75.7046 183.73Z" fill="white"/>
<path d="M84.9375 183.426C84.9375 182.928 85.1311 182.707 85.6566 182.568C86.4309 182.375 86.8734 182.762 86.8734 183.647C86.8734 184.006 86.6522 184.117 85.9055 184.117C85.0481 184.117 84.9375 184.034 84.9375 183.426Z" fill="white"/>
<path d="M74.8749 183.426C74.792 183.204 74.8473 183.011 74.9855 183.011C75.1515 183.011 75.2621 183.204 75.2621 183.426C75.2621 183.647 75.2068 183.84 75.1515 183.84C75.0962 183.84 74.9855 183.647 74.8749 183.426Z" fill="white"/>
<path d="M77.6659 183.647C77.2787 183.287 77.5 182.513 77.9978 182.375C78.302 182.292 78.6062 182.319 78.6892 182.402C79.0211 182.707 78.8275 183.509 78.4126 183.675C77.8872 183.868 77.8872 183.868 77.6659 183.647Z" fill="white"/>
<path d="M87.5377 183.453C87.2335 182.651 87.5654 182.042 88.3397 181.96C88.9205 181.877 89.0864 181.987 89.0864 182.43C89.0864 183.342 88.7822 183.84 88.2291 183.84C87.9249 183.84 87.6207 183.674 87.5377 183.453Z" fill="white"/>
<path d="M79.6015 183.094C79.2696 182.789 79.3802 182.236 79.8504 182.07C80.3758 181.877 81.4821 182.43 81.1779 182.734C80.7907 183.066 79.7951 183.315 79.6015 183.094Z" fill="white"/>
<path d="M82.0077 182.402C81.7588 182.015 82.6438 181.351 83.3629 181.351C83.6947 181.351 83.833 181.517 83.7777 181.821C83.6671 182.374 82.2566 182.817 82.0077 182.402Z" fill="white"/>
<path d="M74.43 182.209C74.43 182.07 74.347 181.766 74.2641 181.517C74.1811 181.268 74.2087 181.075 74.3747 181.075C74.7342 181.075 75.0108 182.126 74.6789 182.347C74.5406 182.43 74.43 182.375 74.43 182.209Z" fill="white"/>
<path d="M75.1791 181.572C75.0132 180.964 75.3451 180.521 75.9812 180.521C76.3407 180.521 76.7002 181.6 76.479 181.96C76.1748 182.43 75.3174 182.153 75.1791 181.572Z" fill="white"/>
<path d="M77.1134 181.711C76.6985 181.296 76.9474 180.3 77.5006 180.162C77.9154 180.052 78.1366 180.19 78.3579 180.688C78.5238 181.047 78.6068 181.407 78.5515 181.462C78.2749 181.711 77.2793 181.905 77.1134 181.711Z" fill="white"/>
<path d="M84.5777 181.711C84.2182 181.352 84.3841 181.13 85.2138 180.826C85.9052 180.605 86.0988 180.632 86.2371 180.964C86.486 181.628 85.1032 182.264 84.5777 181.711Z" fill="white"/>
<path d="M87.0155 181.075C86.7389 180.632 87.1261 180.245 87.8451 180.245C88.7025 180.245 88.9514 180.964 88.177 181.185C87.3473 181.407 87.2091 181.379 87.0155 181.075Z" fill="white"/>
<path d="M89.3633 180.411C89.3633 179.996 89.8611 179.554 90.0823 179.775C90.2759 179.968 89.8887 180.798 89.6122 180.798C89.4739 180.798 89.3633 180.632 89.3633 180.411Z" fill="white"/>
<path d="M74.0697 180.051C73.9591 179.968 73.8761 179.609 73.9038 179.305C73.9038 178.779 73.9315 178.779 74.1804 179.388C74.4569 180.051 74.4016 180.383 74.0697 180.051Z" fill="white"/>
<path d="M74.5951 179.636C74.3462 178.668 74.3738 178.585 75.0929 178.585C75.8949 178.585 76.3927 179.609 75.7843 179.996C75.1482 180.383 74.7887 180.272 74.5951 179.636Z" fill="white"/>
<path d="M84.1055 180.19C84.1055 180.107 84.2437 179.665 84.4097 179.167C84.7969 178.061 85.6542 178.005 85.8478 179.084C85.9308 179.499 85.9584 179.858 85.9308 179.886C85.7925 180.052 84.1055 180.301 84.1055 180.19Z" fill="white"/>
<path d="M76.5608 179.498C76.4502 179.415 76.3672 179.083 76.3672 178.779C76.3672 178.337 76.4502 178.309 76.782 178.586C77.0033 178.779 77.1969 179.111 77.1969 179.305C77.1969 179.719 76.865 179.83 76.5608 179.498Z" fill="white"/>
<path d="M86.5121 178.945C86.3461 178.088 86.7057 177.7 87.563 177.811C87.9778 177.866 88.1161 178.115 88.1161 178.724C88.1161 179.415 88.0055 179.581 87.3971 179.636C86.7886 179.719 86.6503 179.581 86.5121 178.945Z" fill="white"/>
<path d="M89.2251 179.056C88.8656 177.95 88.9762 177.618 89.7229 177.535C90.3867 177.452 90.4696 177.535 90.4696 178.254C90.4696 178.862 90.3037 179.111 89.8888 179.222C89.5846 179.305 89.2804 179.222 89.2251 179.056Z" fill="white"/>
<path d="M73.6523 177.48C73.6523 176.954 73.7077 176.733 73.7906 177.009C73.8459 177.258 73.8459 177.701 73.7906 177.977C73.7077 178.226 73.6523 178.005 73.6523 177.48Z" fill="white"/>
<path d="M74.3483 177.839C73.9887 177.507 74.1547 176.429 74.5972 176.263C75.2333 176.014 75.5375 176.318 75.5375 177.231C75.5375 177.811 75.3992 178.033 75.0397 178.033C74.7631 178.033 74.4312 177.95 74.3483 177.839Z" fill="white"/>
<path d="M76.0062 177.092C75.8956 176.677 75.8403 176.235 75.9509 176.152C76.2275 175.875 76.3934 176.318 76.3105 177.12L76.2275 177.894L76.0062 177.092Z" fill="white"/>
<path d="M84.9375 176.899C84.9375 176.594 85.0758 176.429 85.2141 176.512C85.38 176.594 85.4906 176.871 85.4906 177.092C85.4906 177.314 85.38 177.479 85.2141 177.479C85.0758 177.479 84.9375 177.231 84.9375 176.899Z" fill="white"/>
<path d="M86.1832 177.258C85.7961 176.843 86.1003 176.097 86.7364 175.931C87.5384 175.737 87.566 175.737 87.8149 176.539C87.9809 177.037 87.8703 177.148 87.1512 177.258C86.7087 177.341 86.2662 177.314 86.1832 177.258Z" fill="white"/>
<path d="M88.7304 176.733C88.4262 176.456 88.5091 175.543 88.8134 175.543C88.9793 175.543 89.0899 175.433 89.0899 175.267C89.0899 175.129 88.924 174.99 88.7027 174.99C88.2326 174.99 87.8454 173.635 88.2326 173.248C88.7304 172.75 89.2835 173.276 89.6154 174.631C89.809 175.35 90.0026 176.18 90.0855 176.456C90.1962 176.816 90.0855 176.926 89.5601 176.926C89.2005 176.926 88.8134 176.843 88.7304 176.733Z" fill="white"/>
<path d="M90.2224 175.267C90.0288 174.437 89.531 172.778 89.1715 171.561C88.6184 169.791 88.5631 169.349 88.8673 169.155C89.0609 169.017 89.3098 168.906 89.3927 168.906C89.697 168.906 90.8032 174.576 90.6926 175.682L90.6096 176.788L90.2224 175.267Z" fill="white"/>
<path d="M73.3789 175.129C73.3789 174.686 73.4342 174.52 73.5172 174.797C73.5725 175.046 73.5725 175.433 73.5172 175.627C73.4342 175.792 73.3789 175.599 73.3789 175.129Z" fill="white"/>
<path d="M73.929 175.074C74.0397 174.106 74.8417 173.884 75.0629 174.769C75.2565 175.489 75.3118 175.406 74.4822 175.682C73.9014 175.848 73.8461 175.793 73.929 175.074Z" fill="white"/>
<path d="M85.6012 174.825C85.3799 174.023 85.8501 173.552 86.7351 173.663C87.3988 173.746 87.6477 174.935 87.0946 175.295C86.4032 175.737 85.7671 175.544 85.6012 174.825Z" fill="white"/>
<path d="M75.5352 174.603C75.5352 174.133 75.6734 173.884 75.9777 173.884C76.2542 173.884 76.3648 174.078 76.3095 174.493C76.1712 175.378 75.5352 175.461 75.5352 174.603Z" fill="white"/>
<path d="M73.0757 173.442C73.0757 173.138 73.1587 173.055 73.2417 173.276C73.3246 173.469 73.297 173.718 73.214 173.801C73.131 173.912 73.0481 173.746 73.0757 173.442Z" fill="white"/>
<path d="M73.5977 173.359C73.5977 172.944 73.7636 172.778 74.1784 172.778C74.5656 172.778 74.7039 172.916 74.6486 173.248C74.5103 173.967 73.5977 174.05 73.5977 173.359Z" fill="white"/>
<path d="M75.1212 173.11C74.9276 172.612 74.9276 172.612 75.7573 172.391C76.2551 172.225 76.3657 172.308 76.3657 172.723C76.3657 173.386 75.3701 173.718 75.1212 173.11Z" fill="white"/>
<path d="M85.1326 172.722C84.939 172.031 85.2985 171.671 86.2665 171.671C86.7366 171.671 86.8749 171.837 86.8749 172.363C86.8749 172.778 86.7089 173.054 86.4877 173.054C86.2665 173.054 85.9069 173.137 85.6857 173.22C85.4368 173.303 85.2432 173.137 85.1326 172.722Z" fill="white"/>
<path d="M87.5412 172.087C87.3199 171.533 87.6518 171.119 88.2879 171.119C88.6751 171.119 88.8133 171.312 88.8133 171.81C88.8133 172.308 88.6751 172.501 88.2602 172.501C87.956 172.501 87.6241 172.308 87.5412 172.087Z" fill="white"/>
<path d="M73.3203 171.699C73.3203 171.119 73.9564 170.455 74.233 170.759C74.3436 170.842 74.4266 171.229 74.4266 171.589C74.4266 172.031 74.2606 172.225 73.8734 172.225C73.5139 172.225 73.3203 172.031 73.3203 171.699Z" fill="white"/>
<path d="M74.845 171.368C74.6237 170.676 74.8726 170.372 75.8129 170.234C76.6702 170.123 76.9468 171.036 76.2001 171.589C75.481 172.114 75.0385 172.031 74.845 171.368Z" fill="white"/>
<path d="M84.8519 171.201C84.6583 171.035 84.5754 170.012 84.7413 170.012C84.769 170.012 85.1838 169.902 85.6816 169.763C86.5113 169.514 86.5666 169.542 86.539 170.289C86.5113 170.842 86.3454 171.118 85.9305 171.229C85.1838 171.423 85.0732 171.423 84.8519 171.201Z" fill="white"/>
<path d="M83.832 170.565C83.832 170.372 83.915 170.289 84.0256 170.372C84.1086 170.483 84.1086 170.648 84.0256 170.759C83.915 170.842 83.832 170.759 83.832 170.565Z" fill="white"/>
<path d="M86.9282 170.123C87.0112 169.653 87.8685 168.961 88.0621 169.183C88.1451 169.266 88.2834 169.597 88.3663 169.957C88.5599 170.51 88.477 170.565 87.7026 170.565C87.0388 170.565 86.8452 170.455 86.9282 170.123Z" fill="white"/>
<path d="M73.5977 170.095C73.5977 169.957 73.7359 169.681 73.8742 169.459C74.0955 169.128 74.1508 169.155 74.1508 169.681C74.1508 170.013 74.0402 170.289 73.8742 170.289C73.7359 170.289 73.5977 170.206 73.5977 170.095Z" fill="white"/>
<path d="M74.4297 169.487C74.4297 168.713 75.0105 168.464 75.453 169.044C75.7295 169.459 75.7295 169.598 75.453 169.791C74.8722 170.151 74.4297 170.04 74.4297 169.487Z" fill="white"/>
<path d="M82.8378 169.127C82.34 168.574 82.34 168.547 82.8102 168.713C83.0867 168.823 83.4463 168.906 83.5845 168.906C83.7228 168.906 83.8334 169.1 83.8334 169.321C83.8334 169.902 83.4463 169.847 82.8378 169.127Z" fill="white"/>
<path d="M76.8907 169.1C75.7015 168.187 75.5355 166.141 76.6418 166.141C77.3885 166.141 78.0799 167.302 77.9693 168.381C77.8863 169.376 77.5544 169.598 76.8907 169.1Z" fill="white"/>
<path d="M84.4656 169.265C84.5763 169.182 84.7422 169.182 84.8528 169.265C84.9358 169.376 84.8528 169.459 84.6592 169.459C84.4656 169.459 84.3827 169.376 84.4656 169.265Z" fill="white"/>
<path d="M88.6444 168.187C88.7274 167.938 88.8104 167.689 88.8104 167.634C88.8104 167.579 88.9487 167.523 89.0869 167.523C89.2529 167.523 89.3635 167.772 89.3635 168.077C89.3635 168.408 89.1699 168.63 88.921 168.63C88.6168 168.63 88.5338 168.491 88.6444 168.187Z" fill="white"/>
<path d="M74.1562 168.104C74.1562 167.468 74.737 166.417 75.0689 166.417C75.6497 166.417 75.2348 168.187 74.6264 168.298C74.3775 168.353 74.1562 168.27 74.1562 168.104Z" fill="white"/>
<path d="M80.3726 167.8L79.543 167.606L80.2897 167.413C81.064 167.192 81.6172 167.357 81.6172 167.828C81.6172 168.104 81.5895 168.104 80.3726 167.8Z" fill="white"/>
<path d="M79.4062 166.473C79.4062 165.339 80.0423 165.173 80.6231 166.168C81.0103 166.832 81.038 166.97 80.6784 166.97C80.4572 166.97 80.0977 167.053 79.8487 167.136C79.5169 167.275 79.4062 167.109 79.4062 166.473Z" fill="white"/>
<path d="M84.2223 166.86C82.9778 166.306 82.1758 164.841 82.1758 163.098C82.1758 161.854 82.2864 161.55 83.0331 160.858C83.5033 160.416 83.9734 160.056 84.1117 160.056C84.7201 160.056 86.9603 162.186 87.707 163.513L88.5643 165.034L87.6517 166.002C86.6007 167.108 85.4392 167.413 84.2223 166.86Z" fill="white"/>
<path d="M78.4374 166.14C78.3545 166.002 78.4098 165.864 78.548 165.864C78.714 165.864 78.8523 166.002 78.8523 166.14C78.8523 166.306 78.7969 166.417 78.7416 166.417C78.6587 166.417 78.5204 166.306 78.4374 166.14Z" fill="white"/>
<path d="M74.8124 165.698C74.8953 165.449 74.9783 165.2 74.9783 165.145C74.9783 165.089 75.2272 165.034 75.5314 165.034C76.2228 165.034 76.2505 165.477 75.5591 165.864C74.8124 166.251 74.6188 166.223 74.8124 165.698Z" fill="white"/>
<path d="M77.0012 165.366C76.3652 165.283 76.1716 164.924 76.5864 164.675C76.697 164.592 77.1948 164.453 77.6926 164.343C78.4394 164.177 78.5776 164.232 78.5776 164.702C78.5776 165.283 77.9969 165.532 77.0012 165.366Z" fill="white"/>
<path d="M79.1289 164.426C79.1289 164.094 79.1566 163.9 79.2119 163.956C79.2395 164.011 79.4608 164.288 79.6544 164.564C79.9862 164.951 79.9586 165.034 79.5714 165.034C79.2948 165.034 79.1289 164.813 79.1289 164.426Z" fill="white"/>
<path d="M75.2578 164.232C75.2578 164.066 75.3961 163.873 75.5344 163.79C75.7003 163.707 75.8109 163.817 75.8109 164.039C75.8109 164.288 75.7003 164.481 75.5344 164.481C75.3961 164.481 75.2578 164.371 75.2578 164.232Z" fill="white"/>
<path d="M76.283 163.818C76.0617 163.264 78.0253 162.656 78.3572 163.182C78.6061 163.624 78.3572 163.818 77.3062 164.039C76.6701 164.177 76.3936 164.122 76.283 163.818Z" fill="white"/>
<path d="M78.8804 162.933C78.8804 162.628 78.9634 162.545 79.0464 162.767C79.1293 162.96 79.1017 163.209 79.0187 163.292C78.9357 163.403 78.8528 163.237 78.8804 162.933Z" fill="white"/>
<path d="M76.5297 162.49C76.8616 161.881 77.8295 160.886 78.0784 160.886C78.355 160.886 78.3826 162.186 78.1061 162.352C77.9678 162.407 77.5253 162.545 77.1105 162.656C76.502 162.794 76.3638 162.766 76.5297 162.49Z" fill="white"/>
<path d="M78.7435 161.854C78.4393 161.024 78.5776 160.665 79.2413 160.554C79.9327 160.416 79.9327 160.416 79.4902 161.273C78.9371 162.38 78.9647 162.38 78.7435 161.854Z" fill="white"/>
<path d="M78.5781 160.194C78.5781 160.139 79.1312 159.752 79.8226 159.365C80.6523 158.867 81.2331 158.701 81.6479 158.812C82.1458 158.978 82.0075 159.088 80.7906 159.669C79.4355 160.277 78.5781 160.499 78.5781 160.194Z" fill="white"/>
<path d="M93.9247 135.691C93.178 134.613 91.6016 132.87 90.4677 131.819C89.3338 130.768 88.5871 129.911 88.8084 129.911C89.4168 129.911 94.063 131.183 95.2246 131.681C96.1925 132.096 96.2202 132.151 95.9713 133.009C95.833 133.506 95.7224 134.751 95.7224 135.774C95.7224 136.825 95.6394 137.655 95.5288 137.655C95.3905 137.655 94.6991 136.77 93.9247 135.691Z" fill="white"/>
<path d="M37.6457 219.461C36.5119 218.881 36.2629 218.549 34.8248 215.7C32.7506 211.662 32.6953 210.722 34.6589 213.018C35.4333 213.93 37.2309 215.811 38.6414 217.194C41.0474 219.517 41.1581 219.683 40.356 219.572C39.7753 219.489 39.554 219.544 39.6923 219.766C40.0242 220.263 38.9732 220.125 37.6457 219.461Z" fill="white"/>
<path fill-rule="evenodd" clip-rule="evenodd" d="M83.9961 269.848C83.7666 269.303 84.0225 268.675 84.5676 268.445L85.1634 268.192C90.9566 265.714 94.2817 264.225 96.5411 261.861C98.8005 259.496 99.0708 256.023 99.4953 253.91C99.6118 253.33 100.925 254.349 101.505 254.465C102.085 254.582 102.46 255.146 102.344 255.726C101.834 258.267 100.459 260.689 98.2467 262.988C96.0416 265.28 91.7723 267.736 85.3988 270.42C84.8536 270.649 84.2256 270.393 83.9961 269.848Z" fill="#00160A"/>
<path fill-rule="evenodd" clip-rule="evenodd" d="M110.192 159.5C110.7 159.198 111.357 159.365 111.66 159.873C114.689 164.962 116.312 170.78 116.312 176.832C116.312 195.169 101.447 210.034 83.1104 210.034C78.2379 210.034 73.512 208.983 69.1844 206.981C68.6476 206.732 66.6197 204.755 68.6621 205.559C70.7046 206.363 78.6071 208.169 83.1674 208.169C100.321 208.169 112.456 193.986 112.456 176.832C112.456 171.168 110.192 166.14 109.819 160.969C109.776 160.369 109.683 159.803 110.192 159.5Z" fill="#00160A"/>
<path fill-rule="evenodd" clip-rule="evenodd" d="M4.1192 240.561C4.49777 240.106 5.17311 239.188 5.62761 239.566C7.49211 241.119 9.48177 242.919 11.6101 243.266C13.8248 243.627 16.4522 243.627 19.4889 243.26C20.0761 243.189 20.6098 243.607 20.6808 244.194C20.7519 244.782 20.3335 245.315 19.7463 245.386C16.5215 245.777 13.6956 245.777 11.2651 245.38C8.7482 244.969 6.40756 243.861 4.25668 242.069C3.80218 241.691 3.74063 241.015 4.1192 240.561Z" fill="#00160A"/>
<path d="M26.8599 203.089C25.4771 201.983 22.5179 198.719 20.2778 195.843C19.1162 194.322 17.8164 191.224 17.042 188.099C16.6825 186.689 16.3229 185.417 16.24 185.251C16.1294 185.112 15.6869 183.149 15.2444 180.881C14.5806 177.673 14.721 176.639 14.1381 172.802C13.8913 171.177 13.668 169.885 13.668 169.885L14.387 168.961C14.8019 168.408 15.3266 167.493 15.5209 166.97C16.4059 164.589 22.9051 157.125 23.0987 157.318C23.154 157.373 22.9327 158.673 22.5455 160.194C22.186 161.715 21.7435 164.011 21.5499 165.311C21.2734 167.468 21.1627 167.717 20.3054 168.436C19.2268 169.349 17.1803 172.28 17.1803 172.888C17.1803 173.718 18.4248 173.165 19.7246 171.81L21.0521 170.427V171.948C21.0521 172.944 20.8585 173.856 20.499 174.576C19.8076 175.931 19.8076 177.369 20.4713 178.475C20.8032 179.028 21.1074 180.356 21.301 181.932C22.1584 189.067 23.9837 195.262 27.1088 201.485C27.8832 203.034 28.4916 204.306 28.4639 204.306C28.4086 204.306 27.6896 203.753 26.8599 203.089Z" fill="white"/>
<path fill-rule="evenodd" clip-rule="evenodd" d="M141.938 220.153L143.929 221.038C144.342 221.228 148.897 223.417 154.368 226.046C163.189 230.284 174.393 235.668 174.461 235.668C174.572 235.668 175.091 234.468 175.208 233.068C175.484 230.054 176.508 225.96 177.697 223.112C178.25 221.84 178.692 220.25 178.692 220.111C178.692 220.048 178.243 219.867 177.507 219.57C176.63 219.217 175.348 218.7 173.936 218.023C166.966 214.677 153.332 207.846 151.645 206.823C149.985 205.855 149.654 205.772 149.654 206.408C149.654 207.237 147.967 211.082 146.667 213.156C145.975 214.29 144.62 216.336 143.652 217.691L141.938 220.153ZM173.992 230.69C174.785 231.149 173.411 231.824 173.079 231.934C171.125 232.1 168.824 231.733 166.939 230.634C165.954 229.935 158.193 225.624 153.046 222.764C150.692 221.457 148.885 220.453 148.521 220.236C147.359 219.544 146.253 218.798 146.059 218.576C145.478 217.83 146.032 217.498 147.663 217.636C148.644 217.719 172.279 229.697 173.992 230.69Z" fill="white"/>
<path d="M122.079 222.642C121.36 222.393 120.585 221.84 120.087 221.204L119.258 220.181L122.189 217.277C126.697 212.852 130.016 208.016 133.003 202.623C133.998 200.825 136.958 193.575 137.317 192.773C137.87 191.612 138.285 191.169 139.474 190.506C140.885 189.676 142.489 189.399 143.18 189.87C144.508 190.755 144.508 193.548 143.18 198.36C141.714 203.642 139.751 207.431 135.685 212.879C135.049 213.709 133.86 215.341 133.003 216.475C130.707 219.517 129.214 220.983 127.195 222.116C125.204 223.223 124.042 223.361 122.079 222.642Z" fill="white"/>
<path d="M132.507 222.006L131.926 221.425C131.926 221.425 141.565 209.178 143.292 204.665C144.611 201.222 145.386 200.245 146.433 200.245C147.018 200.245 147.496 200.379 147.717 200.711C148.105 201.291 148.478 202.01 147.98 204.472C147.15 208.454 145.878 211.082 142.061 216.751C141.176 218.051 140.043 219.489 139.545 219.987C138.383 221.065 135.77 222.172 134.249 222.421C133.281 222.559 133.004 222.504 132.507 222.006Z" fill="white"/>
<path fill-rule="evenodd" clip-rule="evenodd" d="M148.696 209.199C149.254 207.923 149.651 206.81 149.651 206.408C149.651 205.772 149.983 205.855 151.642 206.823C153.329 207.846 166.964 214.677 173.933 218.023C176.533 219.268 178.69 219.973 178.69 220.111C178.69 220.25 148.105 210.552 148.696 209.199Z" fill="#E7EAEE"/>
<path fill-rule="evenodd" clip-rule="evenodd" d="M54.0748 210.777C50.5625 208.482 45.2525 203.089 42.6805 199.245C39.0023 193.713 36.5686 187.795 35.3793 181.434C34.522 176.816 34.5497 169.708 35.407 165.587C36.292 161.384 37.4259 158.175 39.4448 154.11C41.7955 149.409 44.2846 145.952 48.0181 142.218C51.6794 138.557 35.407 153.698 39.4448 180.788C42.6805 203.489 56.5866 212.432 54.0748 210.777Z" fill="#E7EAEE"/>
<path d="M39.28 70.448C35.0133 70.448 31.088 69.4453 27.504 67.44C23.9627 65.4347 21.1467 62.6613 19.056 59.12C16.9653 55.5787 15.92 51.5893 15.92 47.152C15.92 42.7147 16.9653 38.7253 19.056 35.184C21.1467 31.6427 23.9627 28.8907 27.504 26.928C31.088 24.9227 35.0133 23.92 39.28 23.92C43.5467 23.92 47.4507 24.9227 50.992 26.928C54.5333 28.8907 57.328 31.6427 59.376 35.184C61.4667 38.7253 62.512 42.7147 62.512 47.152C62.512 51.5893 61.4667 55.5787 59.376 59.12C57.328 62.6613 54.512 65.4347 50.928 67.44C47.3867 69.4453 43.504 70.448 39.28 70.448ZM39.28 57.2C42.096 57.2 44.272 56.304 45.808 54.512C47.344 52.6773 48.112 50.224 48.112 47.152C48.112 44.0373 47.344 41.584 45.808 39.792C44.272 37.9573 42.096 37.04 39.28 37.04C36.4213 37.04 34.224 37.9573 32.688 39.792C31.152 41.584 30.384 44.0373 30.384 47.152C30.384 50.224 31.152 52.6773 32.688 54.512C34.224 56.304 36.4213 57.2 39.28 57.2ZM84.7895 70.448C81.1628 70.448 77.8988 69.7013 74.9975 68.208C72.0962 66.7147 69.8135 64.5813 68.1495 61.808C66.5282 58.992 65.7175 55.7067 65.7175 51.952C65.7175 48.1973 66.5282 44.9333 68.1495 42.16C69.8135 39.344 72.0962 37.1893 74.9975 35.696C77.8988 34.2027 81.1628 33.456 84.7895 33.456C88.4162 33.456 91.6802 34.2027 94.5815 35.696C97.4828 37.1893 99.7442 39.344 101.366 42.16C103.03 44.9333 103.862 48.1973 103.862 51.952C103.862 55.7067 103.03 58.992 101.366 61.808C99.7442 64.5813 97.4828 66.7147 94.5815 68.208C91.6802 69.7013 88.4162 70.448 84.7895 70.448ZM84.7895 58.16C86.1122 58.16 87.2215 57.648 88.1175 56.624C89.0135 55.5573 89.4615 54 89.4615 51.952C89.4615 49.904 89.0135 48.368 88.1175 47.344C87.2215 46.2773 86.1122 45.744 84.7895 45.744C83.4668 45.744 82.3575 46.2773 81.4615 47.344C80.5655 48.368 80.1175 49.904 80.1175 51.952C80.1175 54 80.5442 55.5573 81.3975 56.624C82.2935 57.648 83.4242 58.16 84.7895 58.16ZM122.533 38.832C123.429 37.168 124.709 35.8667 126.373 34.928C128.08 33.9467 130.106 33.456 132.453 33.456C135.269 33.456 137.808 34.2027 140.069 35.696C142.33 37.1467 144.101 39.28 145.381 42.096C146.704 44.8693 147.365 48.1547 147.365 51.952C147.365 55.7493 146.704 59.056 145.381 61.872C144.101 64.6453 142.33 66.7787 140.069 68.272C137.808 69.7227 135.269 70.448 132.453 70.448C130.106 70.448 128.08 69.9787 126.373 69.04C124.709 68.0587 123.429 66.736 122.533 65.072V87.28H108.325V33.904H122.533V38.832ZM132.965 51.952C132.965 50.032 132.474 48.5387 131.493 47.472C130.512 46.4053 129.253 45.872 127.717 45.872C126.181 45.872 124.922 46.4053 123.941 47.472C122.96 48.5387 122.469 50.032 122.469 51.952C122.469 53.872 122.96 55.3653 123.941 56.432C124.922 57.4987 126.181 58.032 127.717 58.032C129.253 58.032 130.512 57.4987 131.493 56.432C132.474 55.3653 132.965 53.872 132.965 51.952ZM167.889 70.448C164.476 70.448 161.446 69.8933 158.801 68.784C156.198 67.6747 154.129 66.1387 152.593 64.176C151.057 62.2133 150.182 59.9947 149.969 57.52H163.601C163.772 58.5867 164.22 59.376 164.945 59.888C165.713 60.4 166.673 60.656 167.825 60.656C168.55 60.656 169.126 60.5067 169.553 60.208C169.98 59.8667 170.193 59.4613 170.193 58.992C170.193 58.1813 169.745 57.6053 168.849 57.264C167.953 56.9227 166.438 56.5387 164.305 56.112C161.702 55.6 159.548 55.0453 157.841 54.448C156.177 53.8507 154.705 52.8267 153.425 51.376C152.188 49.9253 151.569 47.92 151.569 45.36C151.569 43.1413 152.145 41.136 153.297 39.344C154.492 37.5093 156.241 36.08 158.545 35.056C160.849 33.9893 163.644 33.456 166.929 33.456C171.793 33.456 175.59 34.6507 178.321 37.04C181.094 39.4293 182.758 42.544 183.313 46.384H170.705C170.492 45.4027 170.044 44.656 169.361 44.144C168.678 43.5893 167.761 43.312 166.609 43.312C165.884 43.312 165.329 43.4613 164.945 43.76C164.561 44.016 164.369 44.4213 164.369 44.976C164.369 45.7013 164.817 46.256 165.713 46.64C166.609 46.9813 168.038 47.344 170.001 47.728C172.604 48.24 174.801 48.816 176.593 49.456C178.385 50.096 179.942 51.2053 181.265 52.784C182.588 54.32 183.249 56.4533 183.249 59.184C183.249 61.3173 182.63 63.2373 181.393 64.944C180.156 66.6507 178.364 67.9947 176.017 68.976C173.713 69.9573 171.004 70.448 167.889 70.448ZM208.024 21.68L206.36 52.016H194.2L192.536 21.68H208.024ZM200.28 70.512C197.805 70.512 195.821 69.8507 194.328 68.528C192.834 67.2053 192.088 65.5413 192.088 63.536C192.088 61.488 192.834 59.8027 194.328 58.48C195.821 57.1147 197.805 56.432 200.28 56.432C202.712 56.432 204.674 57.1147 206.168 58.48C207.661 59.8027 208.408 61.488 208.408 63.536C208.408 65.5413 207.661 67.2053 206.168 68.528C204.674 69.8507 202.712 70.512 200.28 70.512Z" fill="white"/>
</svg>
