<svg width="345" height="413" viewBox="0 0 345 413" fill="none" xmlns="http://www.w3.org/2000/svg">
<path d="M62.968 19.644V22.13H58.876V35H55.796V22.13H51.704V19.644H62.968ZM66.7773 21.36C66.2346 21.36 65.7799 21.1913 65.4133 20.854C65.0613 20.502 64.8853 20.0693 64.8853 19.556C64.8853 19.0427 65.0613 18.6173 65.4133 18.28C65.7799 17.928 66.2346 17.752 66.7773 17.752C67.3199 17.752 67.7673 17.928 68.1193 18.28C68.4859 18.6173 68.6693 19.0427 68.6693 19.556C68.6693 20.0693 68.4859 20.502 68.1193 20.854C67.7673 21.1913 67.3199 21.36 66.7773 21.36ZM68.2953 22.812V35H65.2153V22.812H68.2953ZM86.4743 22.636C87.9703 22.636 89.173 23.098 90.0823 24.022C91.0063 24.9313 91.4683 26.2073 91.4683 27.85V35H88.3883V28.268C88.3883 27.3147 88.1463 26.5887 87.6623 26.09C87.1783 25.5767 86.5183 25.32 85.6823 25.32C84.8463 25.32 84.179 25.5767 83.6803 26.09C83.1963 26.5887 82.9543 27.3147 82.9543 28.268V35H79.8743V28.268C79.8743 27.3147 79.6323 26.5887 79.1483 26.09C78.6643 25.5767 78.0043 25.32 77.1683 25.32C76.3176 25.32 75.643 25.5767 75.1443 26.09C74.6603 26.5887 74.4183 27.3147 74.4183 28.268V35H71.3383V22.812H74.4183V24.286C74.8143 23.7727 75.3203 23.3693 75.9363 23.076C76.567 22.7827 77.2563 22.636 78.0043 22.636C78.9576 22.636 79.8083 22.8413 80.5563 23.252C81.3043 23.648 81.8836 24.22 82.2943 24.968C82.6903 24.264 83.2623 23.6993 84.0103 23.274C84.773 22.8487 85.5943 22.636 86.4743 22.636ZM105.721 28.642C105.721 29.082 105.692 29.478 105.633 29.83H96.723C96.7964 30.71 97.1044 31.3993 97.647 31.898C98.1897 32.3967 98.857 32.646 99.649 32.646C100.793 32.646 101.607 32.1547 102.091 31.172H105.413C105.061 32.3453 104.386 33.3133 103.389 34.076C102.392 34.824 101.167 35.198 99.715 35.198C98.5417 35.198 97.4857 34.9413 96.547 34.428C95.623 33.9 94.897 33.1593 94.369 32.206C93.8557 31.2527 93.599 30.1527 93.599 28.906C93.599 27.6447 93.8557 26.5373 94.369 25.584C94.8824 24.6307 95.601 23.8973 96.525 23.384C97.449 22.8707 98.5124 22.614 99.715 22.614C100.874 22.614 101.908 22.8633 102.817 23.362C103.741 23.8607 104.452 24.572 104.951 25.496C105.464 26.4053 105.721 27.454 105.721 28.642ZM102.531 27.762C102.516 26.97 102.23 26.3393 101.673 25.87C101.116 25.386 100.434 25.144 99.627 25.144C98.8644 25.144 98.219 25.3787 97.691 25.848C97.1777 26.3027 96.8624 26.9407 96.745 27.762H102.531Z" fill="white"/>
<path d="M29.72 74V71.42H34.54V86H31.66V74H29.72ZM37.3061 78.52C37.3061 76.2133 37.7194 74.4067 38.5461 73.1C39.3861 71.7933 40.7728 71.14 42.7061 71.14C44.6394 71.14 46.0194 71.7933 46.8461 73.1C47.6861 74.4067 48.1061 76.2133 48.1061 78.52C48.1061 80.84 47.6861 82.66 46.8461 83.98C46.0194 85.3 44.6394 85.96 42.7061 85.96C40.7728 85.96 39.3861 85.3 38.5461 83.98C37.7194 82.66 37.3061 80.84 37.3061 78.52ZM45.3461 78.52C45.3461 77.5333 45.2794 76.7067 45.1461 76.04C45.0261 75.36 44.7728 74.8067 44.3861 74.38C44.0128 73.9533 43.4528 73.74 42.7061 73.74C41.9594 73.74 41.3928 73.9533 41.0061 74.38C40.6328 74.8067 40.3794 75.36 40.2461 76.04C40.1261 76.7067 40.0661 77.5333 40.0661 78.52C40.0661 79.5333 40.1261 80.3867 40.2461 81.08C40.3661 81.76 40.6194 82.3133 41.0061 82.74C41.3928 83.1533 41.9594 83.36 42.7061 83.36C43.4528 83.36 44.0194 83.1533 44.4061 82.74C44.7928 82.3133 45.0461 81.76 45.1661 81.08C45.2861 80.3867 45.3461 79.5333 45.3461 78.52ZM51.7958 86.14C51.2891 86.14 50.8691 85.9867 50.5358 85.68C50.2158 85.36 50.0558 84.9667 50.0558 84.5C50.0558 84.0333 50.2158 83.6467 50.5358 83.34C50.8691 83.02 51.2891 82.86 51.7958 82.86C52.2891 82.86 52.6958 83.02 53.0158 83.34C53.3358 83.6467 53.4958 84.0333 53.4958 84.5C53.4958 84.9667 53.3358 85.36 53.0158 85.68C52.6958 85.9867 52.2891 86.14 51.7958 86.14ZM51.7958 77.86C51.2891 77.86 50.8691 77.7067 50.5358 77.4C50.2158 77.08 50.0558 76.6867 50.0558 76.22C50.0558 75.7533 50.2158 75.3667 50.5358 75.06C50.8691 74.74 51.2891 74.58 51.7958 74.58C52.2891 74.58 52.6958 74.74 53.0158 75.06C53.3358 75.3667 53.4958 75.7533 53.4958 76.22C53.4958 76.6867 53.3358 77.08 53.0158 77.4C52.6958 77.7067 52.2891 77.86 51.7958 77.86ZM55.5297 75.26C55.5964 73.9267 56.063 72.9 56.9297 72.18C57.8097 71.4467 58.963 71.08 60.3897 71.08C61.363 71.08 62.1964 71.2533 62.8897 71.6C63.583 71.9333 64.103 72.3933 64.4497 72.98C64.8097 73.5533 64.9897 74.2067 64.9897 74.94C64.9897 75.78 64.7697 76.4933 64.3297 77.08C63.903 77.6533 63.3897 78.04 62.7897 78.24V78.32C63.563 78.56 64.163 78.9867 64.5897 79.6C65.0297 80.2133 65.2497 81 65.2497 81.96C65.2497 82.76 65.063 83.4733 64.6897 84.1C64.3297 84.7267 63.7897 85.22 63.0697 85.58C62.363 85.9267 61.5097 86.1 60.5097 86.1C59.003 86.1 57.7764 85.72 56.8297 84.96C55.883 84.2 55.383 83.08 55.3297 81.6H58.0497C58.0764 82.2533 58.2964 82.78 58.7097 83.18C59.1364 83.5667 59.7164 83.76 60.4497 83.76C61.1297 83.76 61.6497 83.5733 62.0097 83.2C62.383 82.8133 62.5697 82.32 62.5697 81.72C62.5697 80.92 62.3164 80.3467 61.8097 80C61.303 79.6533 60.5164 79.48 59.4497 79.48H58.8697V77.18H59.4497C61.343 77.18 62.2897 76.5467 62.2897 75.28C62.2897 74.7067 62.1164 74.26 61.7697 73.94C61.4364 73.62 60.9497 73.46 60.3097 73.46C59.683 73.46 59.1964 73.6333 58.8497 73.98C58.5164 74.3133 58.323 74.74 58.2697 75.26H55.5297ZM67.4623 78.52C67.4623 76.2133 67.8757 74.4067 68.7023 73.1C69.5423 71.7933 70.929 71.14 72.8623 71.14C74.7957 71.14 76.1757 71.7933 77.0023 73.1C77.8423 74.4067 78.2623 76.2133 78.2623 78.52C78.2623 80.84 77.8423 82.66 77.0023 83.98C76.1757 85.3 74.7957 85.96 72.8623 85.96C70.929 85.96 69.5423 85.3 68.7023 83.98C67.8757 82.66 67.4623 80.84 67.4623 78.52ZM75.5023 78.52C75.5023 77.5333 75.4357 76.7067 75.3023 76.04C75.1823 75.36 74.929 74.8067 74.5423 74.38C74.169 73.9533 73.609 73.74 72.8623 73.74C72.1157 73.74 71.549 73.9533 71.1623 74.38C70.789 74.8067 70.5357 75.36 70.4023 76.04C70.2823 76.7067 70.2223 77.5333 70.2223 78.52C70.2223 79.5333 70.2823 80.3867 70.4023 81.08C70.5223 81.76 70.7757 82.3133 71.1623 82.74C71.549 83.1533 72.1157 83.36 72.8623 83.36C73.609 83.36 74.1757 83.1533 74.5623 82.74C74.949 82.3133 75.2023 81.76 75.3223 81.08C75.4423 80.3867 75.5023 79.5333 75.5023 78.52ZM89.232 77.68V80.04H80.752V77.68H89.232ZM91.7122 74V71.42H96.5322V86H93.6522V74H91.7122ZM98.9583 74V71.42H103.778V86H100.898V74H98.9583ZM108.104 86.14C107.598 86.14 107.178 85.9867 106.844 85.68C106.524 85.36 106.364 84.9667 106.364 84.5C106.364 84.0333 106.524 83.6467 106.844 83.34C107.178 83.02 107.598 82.86 108.104 82.86C108.598 82.86 109.004 83.02 109.324 83.34C109.644 83.6467 109.804 84.0333 109.804 84.5C109.804 84.9667 109.644 85.36 109.324 85.68C109.004 85.9867 108.598 86.14 108.104 86.14ZM108.104 77.86C107.598 77.86 107.178 77.7067 106.844 77.4C106.524 77.08 106.364 76.6867 106.364 76.22C106.364 75.7533 106.524 75.3667 106.844 75.06C107.178 74.74 107.598 74.58 108.104 74.58C108.598 74.58 109.004 74.74 109.324 75.06C109.644 75.3667 109.804 75.7533 109.804 76.22C109.804 76.6867 109.644 77.08 109.324 77.4C109.004 77.7067 108.598 77.86 108.104 77.86ZM111.798 78.52C111.798 76.2133 112.212 74.4067 113.038 73.1C113.878 71.7933 115.265 71.14 117.198 71.14C119.132 71.14 120.512 71.7933 121.338 73.1C122.178 74.4067 122.598 76.2133 122.598 78.52C122.598 80.84 122.178 82.66 121.338 83.98C120.512 85.3 119.132 85.96 117.198 85.96C115.265 85.96 113.878 85.3 113.038 83.98C112.212 82.66 111.798 80.84 111.798 78.52ZM119.838 78.52C119.838 77.5333 119.772 76.7067 119.638 76.04C119.518 75.36 119.265 74.8067 118.878 74.38C118.505 73.9533 117.945 73.74 117.198 73.74C116.452 73.74 115.885 73.9533 115.498 74.38C115.125 74.8067 114.872 75.36 114.738 76.04C114.618 76.7067 114.558 77.5333 114.558 78.52C114.558 79.5333 114.618 80.3867 114.738 81.08C114.858 81.76 115.112 82.3133 115.498 82.74C115.885 83.1533 116.452 83.36 117.198 83.36C117.945 83.36 118.512 83.1533 118.898 82.74C119.285 82.3133 119.538 81.76 119.658 81.08C119.778 80.3867 119.838 79.5333 119.838 78.52ZM124.728 78.52C124.728 76.2133 125.141 74.4067 125.968 73.1C126.808 71.7933 128.195 71.14 130.128 71.14C132.061 71.14 133.441 71.7933 134.268 73.1C135.108 74.4067 135.528 76.2133 135.528 78.52C135.528 80.84 135.108 82.66 134.268 83.98C133.441 85.3 132.061 85.96 130.128 85.96C128.195 85.96 126.808 85.3 125.968 83.98C125.141 82.66 124.728 80.84 124.728 78.52ZM132.768 78.52C132.768 77.5333 132.701 76.7067 132.568 76.04C132.448 75.36 132.195 74.8067 131.808 74.38C131.435 73.9533 130.875 73.74 130.128 73.74C129.381 73.74 128.815 73.9533 128.428 74.38C128.055 74.8067 127.801 75.36 127.668 76.04C127.548 76.7067 127.488 77.5333 127.488 78.52C127.488 79.5333 127.548 80.3867 127.668 81.08C127.788 81.76 128.041 82.3133 128.428 82.74C128.815 83.1533 129.381 83.36 130.128 83.36C130.875 83.36 131.441 83.1533 131.828 82.74C132.215 82.3133 132.468 81.76 132.588 81.08C132.708 80.3867 132.768 79.5333 132.768 78.52Z" fill="white"/>
<path d="M29.72 134V131.42H34.54V146H31.66V134H29.72ZM36.9661 134V131.42H41.7861V146H38.9061V134H36.9661ZM46.1122 146.14C45.6055 146.14 45.1855 145.987 44.8522 145.68C44.5322 145.36 44.3722 144.967 44.3722 144.5C44.3722 144.033 44.5322 143.647 44.8522 143.34C45.1855 143.02 45.6055 142.86 46.1122 142.86C46.6055 142.86 47.0122 143.02 47.3322 143.34C47.6522 143.647 47.8122 144.033 47.8122 144.5C47.8122 144.967 47.6522 145.36 47.3322 145.68C47.0122 145.987 46.6055 146.14 46.1122 146.14ZM46.1122 137.86C45.6055 137.86 45.1855 137.707 44.8522 137.4C44.5322 137.08 44.3722 136.687 44.3722 136.22C44.3722 135.753 44.5322 135.367 44.8522 135.06C45.1855 134.74 45.6055 134.58 46.1122 134.58C46.6055 134.58 47.0122 134.74 47.3322 135.06C47.6522 135.367 47.8122 135.753 47.8122 136.22C47.8122 136.687 47.6522 137.08 47.3322 137.4C47.0122 137.707 46.6055 137.86 46.1122 137.86ZM49.8061 138.52C49.8061 136.213 50.2194 134.407 51.0461 133.1C51.8861 131.793 53.2728 131.14 55.2061 131.14C57.1394 131.14 58.5194 131.793 59.3461 133.1C60.1861 134.407 60.6061 136.213 60.6061 138.52C60.6061 140.84 60.1861 142.66 59.3461 143.98C58.5194 145.3 57.1394 145.96 55.2061 145.96C53.2728 145.96 51.8861 145.3 51.0461 143.98C50.2194 142.66 49.8061 140.84 49.8061 138.52ZM57.8461 138.52C57.8461 137.533 57.7794 136.707 57.6461 136.04C57.5261 135.36 57.2728 134.807 56.8861 134.38C56.5128 133.953 55.9528 133.74 55.2061 133.74C54.4594 133.74 53.8928 133.953 53.5061 134.38C53.1328 134.807 52.8794 135.36 52.7461 136.04C52.6261 136.707 52.5661 137.533 52.5661 138.52C52.5661 139.533 52.6261 140.387 52.7461 141.08C52.8661 141.76 53.1194 142.313 53.5061 142.74C53.8928 143.153 54.4594 143.36 55.2061 143.36C55.9528 143.36 56.5194 143.153 56.9061 142.74C57.2928 142.313 57.5461 141.76 57.6661 141.08C57.7861 140.387 57.8461 139.533 57.8461 138.52ZM62.7358 138.52C62.7358 136.213 63.1491 134.407 63.9758 133.1C64.8158 131.793 66.2024 131.14 68.1358 131.14C70.0691 131.14 71.4491 131.793 72.2758 133.1C73.1158 134.407 73.5358 136.213 73.5358 138.52C73.5358 140.84 73.1158 142.66 72.2758 143.98C71.4491 145.3 70.0691 145.96 68.1358 145.96C66.2024 145.96 64.8158 145.3 63.9758 143.98C63.1491 142.66 62.7358 140.84 62.7358 138.52ZM70.7758 138.52C70.7758 137.533 70.7091 136.707 70.5758 136.04C70.4558 135.36 70.2024 134.807 69.8158 134.38C69.4424 133.953 68.8824 133.74 68.1358 133.74C67.3891 133.74 66.8224 133.953 66.4358 134.38C66.0624 134.807 65.8091 135.36 65.6758 136.04C65.5558 136.707 65.4958 137.533 65.4958 138.52C65.4958 139.533 65.5558 140.387 65.6758 141.08C65.7958 141.76 66.0491 142.313 66.4358 142.74C66.8224 143.153 67.3891 143.36 68.1358 143.36C68.8824 143.36 69.4491 143.153 69.8358 142.74C70.2224 142.313 70.4758 141.76 70.5958 141.08C70.7158 140.387 70.7758 139.533 70.7758 138.52ZM84.5055 137.68V140.04H76.0255V137.68H84.5055ZM86.9856 134V131.42H91.8056V146H88.9256V134H86.9856ZM94.2317 134V131.42H99.0517V146H96.1717V134H94.2317ZM103.378 146.14C102.871 146.14 102.451 145.987 102.118 145.68C101.798 145.36 101.638 144.967 101.638 144.5C101.638 144.033 101.798 143.647 102.118 143.34C102.451 143.02 102.871 142.86 103.378 142.86C103.871 142.86 104.278 143.02 104.598 143.34C104.918 143.647 105.078 144.033 105.078 144.5C105.078 144.967 104.918 145.36 104.598 145.68C104.278 145.987 103.871 146.14 103.378 146.14ZM103.378 137.86C102.871 137.86 102.451 137.707 102.118 137.4C101.798 137.08 101.638 136.687 101.638 136.22C101.638 135.753 101.798 135.367 102.118 135.06C102.451 134.74 102.871 134.58 103.378 134.58C103.871 134.58 104.278 134.74 104.598 135.06C104.918 135.367 105.078 135.753 105.078 136.22C105.078 136.687 104.918 137.08 104.598 137.4C104.278 137.707 103.871 137.86 103.378 137.86ZM107.112 135.26C107.178 133.927 107.645 132.9 108.512 132.18C109.392 131.447 110.545 131.08 111.972 131.08C112.945 131.08 113.778 131.253 114.472 131.6C115.165 131.933 115.685 132.393 116.032 132.98C116.392 133.553 116.572 134.207 116.572 134.94C116.572 135.78 116.352 136.493 115.912 137.08C115.485 137.653 114.972 138.04 114.372 138.24V138.32C115.145 138.56 115.745 138.987 116.172 139.6C116.612 140.213 116.832 141 116.832 141.96C116.832 142.76 116.645 143.473 116.272 144.1C115.912 144.727 115.372 145.22 114.652 145.58C113.945 145.927 113.092 146.1 112.092 146.1C110.585 146.1 109.358 145.72 108.412 144.96C107.465 144.2 106.965 143.08 106.912 141.6H109.632C109.658 142.253 109.878 142.78 110.292 143.18C110.718 143.567 111.298 143.76 112.032 143.76C112.712 143.76 113.232 143.573 113.592 143.2C113.965 142.813 114.152 142.32 114.152 141.72C114.152 140.92 113.898 140.347 113.392 140C112.885 139.653 112.098 139.48 111.032 139.48H110.452V137.18H111.032C112.925 137.18 113.872 136.547 113.872 135.28C113.872 134.707 113.698 134.26 113.352 133.94C113.018 133.62 112.532 133.46 111.892 133.46C111.265 133.46 110.778 133.633 110.432 133.98C110.098 134.313 109.905 134.74 109.852 135.26H107.112ZM119.044 138.52C119.044 136.213 119.458 134.407 120.284 133.1C121.124 131.793 122.511 131.14 124.444 131.14C126.378 131.14 127.758 131.793 128.584 133.1C129.424 134.407 129.844 136.213 129.844 138.52C129.844 140.84 129.424 142.66 128.584 143.98C127.758 145.3 126.378 145.96 124.444 145.96C122.511 145.96 121.124 145.3 120.284 143.98C119.458 142.66 119.044 140.84 119.044 138.52ZM127.084 138.52C127.084 137.533 127.018 136.707 126.884 136.04C126.764 135.36 126.511 134.807 126.124 134.38C125.751 133.953 125.191 133.74 124.444 133.74C123.698 133.74 123.131 133.953 122.744 134.38C122.371 134.807 122.118 135.36 121.984 136.04C121.864 136.707 121.804 137.533 121.804 138.52C121.804 139.533 121.864 140.387 121.984 141.08C122.104 141.76 122.358 142.313 122.744 142.74C123.131 143.153 123.698 143.36 124.444 143.36C125.191 143.36 125.758 143.153 126.144 142.74C126.531 142.313 126.784 141.76 126.904 141.08C127.024 140.387 127.084 139.533 127.084 138.52Z" fill="white"/>
<path d="M29.72 196V193.42H34.54V208H31.66V196H29.72ZM36.9661 196V193.42H41.7861V208H38.9061V196H36.9661ZM46.1122 208.14C45.6055 208.14 45.1855 207.987 44.8522 207.68C44.5322 207.36 44.3722 206.967 44.3722 206.5C44.3722 206.033 44.5322 205.647 44.8522 205.34C45.1855 205.02 45.6055 204.86 46.1122 204.86C46.6055 204.86 47.0122 205.02 47.3322 205.34C47.6522 205.647 47.8122 206.033 47.8122 206.5C47.8122 206.967 47.6522 207.36 47.3322 207.68C47.0122 207.987 46.6055 208.14 46.1122 208.14ZM46.1122 199.86C45.6055 199.86 45.1855 199.707 44.8522 199.4C44.5322 199.08 44.3722 198.687 44.3722 198.22C44.3722 197.753 44.5322 197.367 44.8522 197.06C45.1855 196.74 45.6055 196.58 46.1122 196.58C46.6055 196.58 47.0122 196.74 47.3322 197.06C47.6522 197.367 47.8122 197.753 47.8122 198.22C47.8122 198.687 47.6522 199.08 47.3322 199.4C47.0122 199.707 46.6055 199.86 46.1122 199.86ZM49.8461 197.26C49.9128 195.927 50.3794 194.9 51.2461 194.18C52.1261 193.447 53.2794 193.08 54.7061 193.08C55.6794 193.08 56.5128 193.253 57.2061 193.6C57.8994 193.933 58.4194 194.393 58.7661 194.98C59.1261 195.553 59.3061 196.207 59.3061 196.94C59.3061 197.78 59.0861 198.493 58.6461 199.08C58.2194 199.653 57.7061 200.04 57.1061 200.24V200.32C57.8794 200.56 58.4794 200.987 58.9061 201.6C59.3461 202.213 59.5661 203 59.5661 203.96C59.5661 204.76 59.3794 205.473 59.0061 206.1C58.6461 206.727 58.1061 207.22 57.3861 207.58C56.6794 207.927 55.8261 208.1 54.8261 208.1C53.3194 208.1 52.0928 207.72 51.1461 206.96C50.1994 206.2 49.6994 205.08 49.6461 203.6H52.3661C52.3928 204.253 52.6128 204.78 53.0261 205.18C53.4528 205.567 54.0328 205.76 54.7661 205.76C55.4461 205.76 55.9661 205.573 56.3261 205.2C56.6994 204.813 56.8861 204.32 56.8861 203.72C56.8861 202.92 56.6328 202.347 56.1261 202C55.6194 201.653 54.8328 201.48 53.7661 201.48H53.1861V199.18H53.7661C55.6594 199.18 56.6061 198.547 56.6061 197.28C56.6061 196.707 56.4328 196.26 56.0861 195.94C55.7528 195.62 55.2661 195.46 54.6261 195.46C53.9994 195.46 53.5128 195.633 53.1661 195.98C52.8328 196.313 52.6394 196.74 52.5861 197.26H49.8461ZM61.7788 200.52C61.7788 198.213 62.1921 196.407 63.0188 195.1C63.8588 193.793 65.2454 193.14 67.1788 193.14C69.1121 193.14 70.4921 193.793 71.3188 195.1C72.1588 196.407 72.5788 198.213 72.5788 200.52C72.5788 202.84 72.1588 204.66 71.3188 205.98C70.4921 207.3 69.1121 207.96 67.1788 207.96C65.2454 207.96 63.8588 207.3 63.0188 205.98C62.1921 204.66 61.7788 202.84 61.7788 200.52ZM69.8188 200.52C69.8188 199.533 69.7521 198.707 69.6188 198.04C69.4988 197.36 69.2454 196.807 68.8588 196.38C68.4854 195.953 67.9254 195.74 67.1788 195.74C66.4321 195.74 65.8654 195.953 65.4788 196.38C65.1054 196.807 64.8521 197.36 64.7188 198.04C64.5988 198.707 64.5388 199.533 64.5388 200.52C64.5388 201.533 64.5988 202.387 64.7188 203.08C64.8388 203.76 65.0921 204.313 65.4788 204.74C65.8654 205.153 66.4321 205.36 67.1788 205.36C67.9254 205.36 68.4921 205.153 68.8788 204.74C69.2654 204.313 69.5188 203.76 69.6388 203.08C69.7588 202.387 69.8188 201.533 69.8188 200.52ZM83.5484 199.68V202.04H75.0684V199.68H83.5484ZM86.0286 196V193.42H90.8486V208H87.9686V196H86.0286ZM94.4947 204.84C95.7747 203.773 96.7947 202.887 97.5547 202.18C98.3147 201.46 98.948 200.713 99.4547 199.94C99.9614 199.167 100.215 198.407 100.215 197.66C100.215 196.98 100.055 196.447 99.7347 196.06C99.4147 195.673 98.9214 195.48 98.2547 195.48C97.588 195.48 97.0747 195.707 96.7147 196.16C96.3547 196.6 96.168 197.207 96.1547 197.98H93.4347C93.488 196.38 93.9614 195.167 94.8547 194.34C95.7614 193.513 96.908 193.1 98.2947 193.1C99.8147 193.1 100.981 193.507 101.795 194.32C102.608 195.12 103.015 196.18 103.015 197.5C103.015 198.54 102.735 199.533 102.175 200.48C101.615 201.427 100.975 202.253 100.255 202.96C99.5347 203.653 98.5947 204.493 97.4347 205.48H103.335V207.8H93.4547V205.72L94.4947 204.84ZM106.659 208.14C106.152 208.14 105.732 207.987 105.399 207.68C105.079 207.36 104.919 206.967 104.919 206.5C104.919 206.033 105.079 205.647 105.399 205.34C105.732 205.02 106.152 204.86 106.659 204.86C107.152 204.86 107.559 205.02 107.879 205.34C108.199 205.647 108.359 206.033 108.359 206.5C108.359 206.967 108.199 207.36 107.879 207.68C107.559 207.987 107.152 208.14 106.659 208.14ZM106.659 199.86C106.152 199.86 105.732 199.707 105.399 199.4C105.079 199.08 104.919 198.687 104.919 198.22C104.919 197.753 105.079 197.367 105.399 197.06C105.732 196.74 106.152 196.58 106.659 196.58C107.152 196.58 107.559 196.74 107.879 197.06C108.199 197.367 108.359 197.753 108.359 198.22C108.359 198.687 108.199 199.08 107.879 199.4C107.559 199.707 107.152 199.86 106.659 199.86ZM110.353 200.52C110.353 198.213 110.766 196.407 111.593 195.1C112.433 193.793 113.82 193.14 115.753 193.14C117.686 193.14 119.066 193.793 119.893 195.1C120.733 196.407 121.153 198.213 121.153 200.52C121.153 202.84 120.733 204.66 119.893 205.98C119.066 207.3 117.686 207.96 115.753 207.96C113.82 207.96 112.433 207.3 111.593 205.98C110.766 204.66 110.353 202.84 110.353 200.52ZM118.393 200.52C118.393 199.533 118.326 198.707 118.193 198.04C118.073 197.36 117.82 196.807 117.433 196.38C117.06 195.953 116.5 195.74 115.753 195.74C115.006 195.74 114.44 195.953 114.053 196.38C113.68 196.807 113.426 197.36 113.293 198.04C113.173 198.707 113.113 199.533 113.113 200.52C113.113 201.533 113.173 202.387 113.293 203.08C113.413 203.76 113.666 204.313 114.053 204.74C114.44 205.153 115.006 205.36 115.753 205.36C116.5 205.36 117.066 205.153 117.453 204.74C117.84 204.313 118.093 203.76 118.213 203.08C118.333 202.387 118.393 201.533 118.393 200.52ZM123.283 200.52C123.283 198.213 123.696 196.407 124.523 195.1C125.363 193.793 126.749 193.14 128.683 193.14C130.616 193.14 131.996 193.793 132.823 195.1C133.663 196.407 134.083 198.213 134.083 200.52C134.083 202.84 133.663 204.66 132.823 205.98C131.996 207.3 130.616 207.96 128.683 207.96C126.749 207.96 125.363 207.3 124.523 205.98C123.696 204.66 123.283 202.84 123.283 200.52ZM131.323 200.52C131.323 199.533 131.256 198.707 131.123 198.04C131.003 197.36 130.749 196.807 130.363 196.38C129.989 195.953 129.429 195.74 128.683 195.74C127.936 195.74 127.369 195.953 126.983 196.38C126.609 196.807 126.356 197.36 126.223 198.04C126.103 198.707 126.043 199.533 126.043 200.52C126.043 201.533 126.103 202.387 126.223 203.08C126.343 203.76 126.596 204.313 126.983 204.74C127.369 205.153 127.936 205.36 128.683 205.36C129.429 205.36 129.996 205.153 130.383 204.74C130.769 204.313 131.023 203.76 131.143 203.08C131.263 202.387 131.323 201.533 131.323 200.52Z" fill="white"/>
<path d="M29.72 256V253.42H34.54V268H31.66V256H29.72ZM38.1861 264.84C39.4661 263.773 40.4861 262.887 41.2461 262.18C42.0061 261.46 42.6394 260.713 43.1461 259.94C43.6528 259.167 43.9061 258.407 43.9061 257.66C43.9061 256.98 43.7461 256.447 43.4261 256.06C43.1061 255.673 42.6128 255.48 41.9461 255.48C41.2794 255.48 40.7661 255.707 40.4061 256.16C40.0461 256.6 39.8594 257.207 39.8461 257.98H37.1261C37.1794 256.38 37.6528 255.167 38.5461 254.34C39.4528 253.513 40.5994 253.1 41.9861 253.1C43.5061 253.1 44.6728 253.507 45.4861 254.32C46.2994 255.12 46.7061 256.18 46.7061 257.5C46.7061 258.54 46.4261 259.533 45.8661 260.48C45.3061 261.427 44.6661 262.253 43.9461 262.96C43.2261 263.653 42.2861 264.493 41.1261 265.48H47.0261V267.8H37.1461V265.72L38.1861 264.84ZM50.3505 268.14C49.8438 268.14 49.4238 267.987 49.0905 267.68C48.7705 267.36 48.6105 266.967 48.6105 266.5C48.6105 266.033 48.7705 265.647 49.0905 265.34C49.4238 265.02 49.8438 264.86 50.3505 264.86C50.8438 264.86 51.2505 265.02 51.5705 265.34C51.8905 265.647 52.0505 266.033 52.0505 266.5C52.0505 266.967 51.8905 267.36 51.5705 267.68C51.2505 267.987 50.8438 268.14 50.3505 268.14ZM50.3505 259.86C49.8438 259.86 49.4238 259.707 49.0905 259.4C48.7705 259.08 48.6105 258.687 48.6105 258.22C48.6105 257.753 48.7705 257.367 49.0905 257.06C49.4238 256.74 49.8438 256.58 50.3505 256.58C50.8438 256.58 51.2505 256.74 51.5705 257.06C51.8905 257.367 52.0505 257.753 52.0505 258.22C52.0505 258.687 51.8905 259.08 51.5705 259.4C51.2505 259.707 50.8438 259.86 50.3505 259.86ZM54.0444 260.52C54.0444 258.213 54.4577 256.407 55.2844 255.1C56.1244 253.793 57.511 253.14 59.4444 253.14C61.3777 253.14 62.7577 253.793 63.5844 255.1C64.4244 256.407 64.8444 258.213 64.8444 260.52C64.8444 262.84 64.4244 264.66 63.5844 265.98C62.7577 267.3 61.3777 267.96 59.4444 267.96C57.511 267.96 56.1244 267.3 55.2844 265.98C54.4577 264.66 54.0444 262.84 54.0444 260.52ZM62.0844 260.52C62.0844 259.533 62.0177 258.707 61.8844 258.04C61.7644 257.36 61.511 256.807 61.1244 256.38C60.751 255.953 60.191 255.74 59.4444 255.74C58.6977 255.74 58.131 255.953 57.7444 256.38C57.371 256.807 57.1177 257.36 56.9844 258.04C56.8644 258.707 56.8044 259.533 56.8044 260.52C56.8044 261.533 56.8644 262.387 56.9844 263.08C57.1044 263.76 57.3577 264.313 57.7444 264.74C58.131 265.153 58.6977 265.36 59.4444 265.36C60.191 265.36 60.7577 265.153 61.1444 264.74C61.531 264.313 61.7844 263.76 61.9044 263.08C62.0244 262.387 62.0844 261.533 62.0844 260.52ZM66.9741 260.52C66.9741 258.213 67.3874 256.407 68.2141 255.1C69.0541 253.793 70.4407 253.14 72.3741 253.14C74.3074 253.14 75.6874 253.793 76.5141 255.1C77.3541 256.407 77.7741 258.213 77.7741 260.52C77.7741 262.84 77.3541 264.66 76.5141 265.98C75.6874 267.3 74.3074 267.96 72.3741 267.96C70.4407 267.96 69.0541 267.3 68.2141 265.98C67.3874 264.66 66.9741 262.84 66.9741 260.52ZM75.0141 260.52C75.0141 259.533 74.9474 258.707 74.8141 258.04C74.6941 257.36 74.4407 256.807 74.0541 256.38C73.6807 255.953 73.1207 255.74 72.3741 255.74C71.6274 255.74 71.0607 255.953 70.6741 256.38C70.3007 256.807 70.0474 257.36 69.9141 258.04C69.7941 258.707 69.7341 259.533 69.7341 260.52C69.7341 261.533 69.7941 262.387 69.9141 263.08C70.0341 263.76 70.2874 264.313 70.6741 264.74C71.0607 265.153 71.6274 265.36 72.3741 265.36C73.1207 265.36 73.6874 265.153 74.0741 264.74C74.4607 264.313 74.7141 263.76 74.8341 263.08C74.9541 262.387 75.0141 261.533 75.0141 260.52ZM88.7438 259.68V262.04H80.2638V259.68H88.7438ZM91.2239 256V253.42H96.0439V268H93.1639V256H91.2239ZM99.69 264.84C100.97 263.773 101.99 262.887 102.75 262.18C103.51 261.46 104.143 260.713 104.65 259.94C105.157 259.167 105.41 258.407 105.41 257.66C105.41 256.98 105.25 256.447 104.93 256.06C104.61 255.673 104.117 255.48 103.45 255.48C102.783 255.48 102.27 255.707 101.91 256.16C101.55 256.6 101.363 257.207 101.35 257.98H98.63C98.6833 256.38 99.1567 255.167 100.05 254.34C100.957 253.513 102.103 253.1 103.49 253.1C105.01 253.1 106.177 253.507 106.99 254.32C107.803 255.12 108.21 256.18 108.21 257.5C108.21 258.54 107.93 259.533 107.37 260.48C106.81 261.427 106.17 262.253 105.45 262.96C104.73 263.653 103.79 264.493 102.63 265.48H108.53V267.8H98.65V265.72L99.69 264.84ZM111.854 268.14C111.348 268.14 110.928 267.987 110.594 267.68C110.274 267.36 110.114 266.967 110.114 266.5C110.114 266.033 110.274 265.647 110.594 265.34C110.928 265.02 111.348 264.86 111.854 264.86C112.348 264.86 112.754 265.02 113.074 265.34C113.394 265.647 113.554 266.033 113.554 266.5C113.554 266.967 113.394 267.36 113.074 267.68C112.754 267.987 112.348 268.14 111.854 268.14ZM111.854 259.86C111.348 259.86 110.928 259.707 110.594 259.4C110.274 259.08 110.114 258.687 110.114 258.22C110.114 257.753 110.274 257.367 110.594 257.06C110.928 256.74 111.348 256.58 111.854 256.58C112.348 256.58 112.754 256.74 113.074 257.06C113.394 257.367 113.554 257.753 113.554 258.22C113.554 258.687 113.394 259.08 113.074 259.4C112.754 259.707 112.348 259.86 111.854 259.86ZM115.588 257.26C115.655 255.927 116.122 254.9 116.988 254.18C117.868 253.447 119.022 253.08 120.448 253.08C121.422 253.08 122.255 253.253 122.948 253.6C123.642 253.933 124.162 254.393 124.508 254.98C124.868 255.553 125.048 256.207 125.048 256.94C125.048 257.78 124.828 258.493 124.388 259.08C123.962 259.653 123.448 260.04 122.848 260.24V260.32C123.622 260.56 124.222 260.987 124.648 261.6C125.088 262.213 125.308 263 125.308 263.96C125.308 264.76 125.122 265.473 124.748 266.1C124.388 266.727 123.848 267.22 123.128 267.58C122.422 267.927 121.568 268.1 120.568 268.1C119.062 268.1 117.835 267.72 116.888 266.96C115.942 266.2 115.442 265.08 115.388 263.6H118.108C118.135 264.253 118.355 264.78 118.768 265.18C119.195 265.567 119.775 265.76 120.508 265.76C121.188 265.76 121.708 265.573 122.068 265.2C122.442 264.813 122.628 264.32 122.628 263.72C122.628 262.92 122.375 262.347 121.868 262C121.362 261.653 120.575 261.48 119.508 261.48H118.928V259.18H119.508C121.402 259.18 122.348 258.547 122.348 257.28C122.348 256.707 122.175 256.26 121.828 255.94C121.495 255.62 121.008 255.46 120.368 255.46C119.742 255.46 119.255 255.633 118.908 255.98C118.575 256.313 118.382 256.74 118.328 257.26H115.588ZM127.521 260.52C127.521 258.213 127.934 256.407 128.761 255.1C129.601 253.793 130.988 253.14 132.921 253.14C134.854 253.14 136.234 253.793 137.061 255.1C137.901 256.407 138.321 258.213 138.321 260.52C138.321 262.84 137.901 264.66 137.061 265.98C136.234 267.3 134.854 267.96 132.921 267.96C130.988 267.96 129.601 267.3 128.761 265.98C127.934 264.66 127.521 262.84 127.521 260.52ZM135.561 260.52C135.561 259.533 135.494 258.707 135.361 258.04C135.241 257.36 134.988 256.807 134.601 256.38C134.228 255.953 133.668 255.74 132.921 255.74C132.174 255.74 131.608 255.953 131.221 256.38C130.848 256.807 130.594 257.36 130.461 258.04C130.341 258.707 130.281 259.533 130.281 260.52C130.281 261.533 130.341 262.387 130.461 263.08C130.581 263.76 130.834 264.313 131.221 264.74C131.608 265.153 132.174 265.36 132.921 265.36C133.668 265.36 134.234 265.153 134.621 264.74C135.008 264.313 135.261 263.76 135.381 263.08C135.501 262.387 135.561 261.533 135.561 260.52Z" fill="white"/>
<path d="M29.72 314V311.42H34.54V326H31.66V314H29.72ZM38.1861 322.84C39.4661 321.773 40.4861 320.887 41.2461 320.18C42.0061 319.46 42.6394 318.713 43.1461 317.94C43.6528 317.167 43.9061 316.407 43.9061 315.66C43.9061 314.98 43.7461 314.447 43.4261 314.06C43.1061 313.673 42.6128 313.48 41.9461 313.48C41.2794 313.48 40.7661 313.707 40.4061 314.16C40.0461 314.6 39.8594 315.207 39.8461 315.98H37.1261C37.1794 314.38 37.6528 313.167 38.5461 312.34C39.4528 311.513 40.5994 311.1 41.9861 311.1C43.5061 311.1 44.6728 311.507 45.4861 312.32C46.2994 313.12 46.7061 314.18 46.7061 315.5C46.7061 316.54 46.4261 317.533 45.8661 318.48C45.3061 319.427 44.6661 320.253 43.9461 320.96C43.2261 321.653 42.2861 322.493 41.1261 323.48H47.0261V325.8H37.1461V323.72L38.1861 322.84ZM50.3505 326.14C49.8438 326.14 49.4238 325.987 49.0905 325.68C48.7705 325.36 48.6105 324.967 48.6105 324.5C48.6105 324.033 48.7705 323.647 49.0905 323.34C49.4238 323.02 49.8438 322.86 50.3505 322.86C50.8438 322.86 51.2505 323.02 51.5705 323.34C51.8905 323.647 52.0505 324.033 52.0505 324.5C52.0505 324.967 51.8905 325.36 51.5705 325.68C51.2505 325.987 50.8438 326.14 50.3505 326.14ZM50.3505 317.86C49.8438 317.86 49.4238 317.707 49.0905 317.4C48.7705 317.08 48.6105 316.687 48.6105 316.22C48.6105 315.753 48.7705 315.367 49.0905 315.06C49.4238 314.74 49.8438 314.58 50.3505 314.58C50.8438 314.58 51.2505 314.74 51.5705 315.06C51.8905 315.367 52.0505 315.753 52.0505 316.22C52.0505 316.687 51.8905 317.08 51.5705 317.4C51.2505 317.707 50.8438 317.86 50.3505 317.86ZM54.0844 315.26C54.151 313.927 54.6177 312.9 55.4844 312.18C56.3644 311.447 57.5177 311.08 58.9444 311.08C59.9177 311.08 60.751 311.253 61.4444 311.6C62.1377 311.933 62.6577 312.393 63.0044 312.98C63.3644 313.553 63.5444 314.207 63.5444 314.94C63.5444 315.78 63.3244 316.493 62.8844 317.08C62.4577 317.653 61.9444 318.04 61.3444 318.24V318.32C62.1177 318.56 62.7177 318.987 63.1444 319.6C63.5844 320.213 63.8044 321 63.8044 321.96C63.8044 322.76 63.6177 323.473 63.2444 324.1C62.8844 324.727 62.3444 325.22 61.6244 325.58C60.9177 325.927 60.0644 326.1 59.0644 326.1C57.5577 326.1 56.331 325.72 55.3844 324.96C54.4377 324.2 53.9377 323.08 53.8844 321.6H56.6044C56.631 322.253 56.851 322.78 57.2644 323.18C57.691 323.567 58.271 323.76 59.0044 323.76C59.6844 323.76 60.2044 323.573 60.5644 323.2C60.9377 322.813 61.1244 322.32 61.1244 321.72C61.1244 320.92 60.871 320.347 60.3644 320C59.8577 319.653 59.071 319.48 58.0044 319.48H57.4244V317.18H58.0044C59.8977 317.18 60.8444 316.547 60.8444 315.28C60.8444 314.707 60.671 314.26 60.3244 313.94C59.991 313.62 59.5044 313.46 58.8644 313.46C58.2377 313.46 57.751 313.633 57.4044 313.98C57.071 314.313 56.8777 314.74 56.8244 315.26H54.0844ZM66.017 318.52C66.017 316.213 66.4304 314.407 67.257 313.1C68.097 311.793 69.4837 311.14 71.417 311.14C73.3504 311.14 74.7304 311.793 75.557 313.1C76.397 314.407 76.817 316.213 76.817 318.52C76.817 320.84 76.397 322.66 75.557 323.98C74.7304 325.3 73.3504 325.96 71.417 325.96C69.4837 325.96 68.097 325.3 67.257 323.98C66.4304 322.66 66.017 320.84 66.017 318.52ZM74.057 318.52C74.057 317.533 73.9904 316.707 73.857 316.04C73.737 315.36 73.4837 314.807 73.097 314.38C72.7237 313.953 72.1637 313.74 71.417 313.74C70.6704 313.74 70.1037 313.953 69.717 314.38C69.3437 314.807 69.0904 315.36 68.957 316.04C68.837 316.707 68.777 317.533 68.777 318.52C68.777 319.533 68.837 320.387 68.957 321.08C69.077 321.76 69.3304 322.313 69.717 322.74C70.1037 323.153 70.6704 323.36 71.417 323.36C72.1637 323.36 72.7304 323.153 73.117 322.74C73.5037 322.313 73.757 321.76 73.877 321.08C73.997 320.387 74.057 319.533 74.057 318.52ZM87.7867 317.68V320.04H79.3067V317.68H87.7867ZM90.2669 314V311.42H95.0869V326H92.2069V314H90.2669ZM99.413 326.14C98.9063 326.14 98.4863 325.987 98.153 325.68C97.833 325.36 97.673 324.967 97.673 324.5C97.673 324.033 97.833 323.647 98.153 323.34C98.4863 323.02 98.9063 322.86 99.413 322.86C99.9063 322.86 100.313 323.02 100.633 323.34C100.953 323.647 101.113 324.033 101.113 324.5C101.113 324.967 100.953 325.36 100.633 325.68C100.313 325.987 99.9063 326.14 99.413 326.14ZM99.413 317.86C98.9063 317.86 98.4863 317.707 98.153 317.4C97.833 317.08 97.673 316.687 97.673 316.22C97.673 315.753 97.833 315.367 98.153 315.06C98.4863 314.74 98.9063 314.58 99.413 314.58C99.9063 314.58 100.313 314.74 100.633 315.06C100.953 315.367 101.113 315.753 101.113 316.22C101.113 316.687 100.953 317.08 100.633 317.4C100.313 317.707 99.9063 317.86 99.413 317.86ZM103.107 318.52C103.107 316.213 103.52 314.407 104.347 313.1C105.187 311.793 106.574 311.14 108.507 311.14C110.44 311.14 111.82 311.793 112.647 313.1C113.487 314.407 113.907 316.213 113.907 318.52C113.907 320.84 113.487 322.66 112.647 323.98C111.82 325.3 110.44 325.96 108.507 325.96C106.574 325.96 105.187 325.3 104.347 323.98C103.52 322.66 103.107 320.84 103.107 318.52ZM111.147 318.52C111.147 317.533 111.08 316.707 110.947 316.04C110.827 315.36 110.574 314.807 110.187 314.38C109.814 313.953 109.254 313.74 108.507 313.74C107.76 313.74 107.194 313.953 106.807 314.38C106.434 314.807 106.18 315.36 106.047 316.04C105.927 316.707 105.867 317.533 105.867 318.52C105.867 319.533 105.927 320.387 106.047 321.08C106.167 321.76 106.42 322.313 106.807 322.74C107.194 323.153 107.76 323.36 108.507 323.36C109.254 323.36 109.82 323.153 110.207 322.74C110.594 322.313 110.847 321.76 110.967 321.08C111.087 320.387 111.147 319.533 111.147 318.52ZM116.037 318.52C116.037 316.213 116.45 314.407 117.277 313.1C118.117 311.793 119.503 311.14 121.437 311.14C123.37 311.14 124.75 311.793 125.577 313.1C126.417 314.407 126.837 316.213 126.837 318.52C126.837 320.84 126.417 322.66 125.577 323.98C124.75 325.3 123.37 325.96 121.437 325.96C119.503 325.96 118.117 325.3 117.277 323.98C116.45 322.66 116.037 320.84 116.037 318.52ZM124.077 318.52C124.077 317.533 124.01 316.707 123.877 316.04C123.757 315.36 123.503 314.807 123.117 314.38C122.743 313.953 122.183 313.74 121.437 313.74C120.69 313.74 120.123 313.953 119.737 314.38C119.363 314.807 119.11 315.36 118.977 316.04C118.857 316.707 118.797 317.533 118.797 318.52C118.797 319.533 118.857 320.387 118.977 321.08C119.097 321.76 119.35 322.313 119.737 322.74C120.123 323.153 120.69 323.36 121.437 323.36C122.183 323.36 122.75 323.153 123.137 322.74C123.523 322.313 123.777 321.76 123.897 321.08C124.017 320.387 124.077 319.533 124.077 318.52Z" fill="white"/>
<path d="M29.72 376V373.42H34.54V388H31.66V376H29.72ZM38.8661 388.14C38.3594 388.14 37.9394 387.987 37.6061 387.68C37.2861 387.36 37.1261 386.967 37.1261 386.5C37.1261 386.033 37.2861 385.647 37.6061 385.34C37.9394 385.02 38.3594 384.86 38.8661 384.86C39.3594 384.86 39.7661 385.02 40.0861 385.34C40.4061 385.647 40.5661 386.033 40.5661 386.5C40.5661 386.967 40.4061 387.36 40.0861 387.68C39.7661 387.987 39.3594 388.14 38.8661 388.14ZM38.8661 379.86C38.3594 379.86 37.9394 379.707 37.6061 379.4C37.2861 379.08 37.1261 378.687 37.1261 378.22C37.1261 377.753 37.2861 377.367 37.6061 377.06C37.9394 376.74 38.3594 376.58 38.8661 376.58C39.3594 376.58 39.7661 376.74 40.0861 377.06C40.4061 377.367 40.5661 377.753 40.5661 378.22C40.5661 378.687 40.4061 379.08 40.0861 379.4C39.7661 379.707 39.3594 379.86 38.8661 379.86ZM42.56 380.52C42.56 378.213 42.9733 376.407 43.8 375.1C44.64 373.793 46.0267 373.14 47.96 373.14C49.8933 373.14 51.2733 373.793 52.1 375.1C52.94 376.407 53.36 378.213 53.36 380.52C53.36 382.84 52.94 384.66 52.1 385.98C51.2733 387.3 49.8933 387.96 47.96 387.96C46.0267 387.96 44.64 387.3 43.8 385.98C42.9733 384.66 42.56 382.84 42.56 380.52ZM50.6 380.52C50.6 379.533 50.5333 378.707 50.4 378.04C50.28 377.36 50.0267 376.807 49.64 376.38C49.2667 375.953 48.7067 375.74 47.96 375.74C47.2133 375.74 46.6467 375.953 46.26 376.38C45.8867 376.807 45.6333 377.36 45.5 378.04C45.38 378.707 45.32 379.533 45.32 380.52C45.32 381.533 45.38 382.387 45.5 383.08C45.62 383.76 45.8733 384.313 46.26 384.74C46.6467 385.153 47.2133 385.36 47.96 385.36C48.7067 385.36 49.2733 385.153 49.66 384.74C50.0467 384.313 50.3 383.76 50.42 383.08C50.54 382.387 50.6 381.533 50.6 380.52ZM55.4897 380.52C55.4897 378.213 55.903 376.407 56.7297 375.1C57.5697 373.793 58.9564 373.14 60.8897 373.14C62.823 373.14 64.203 373.793 65.0297 375.1C65.8697 376.407 66.2897 378.213 66.2897 380.52C66.2897 382.84 65.8697 384.66 65.0297 385.98C64.203 387.3 62.823 387.96 60.8897 387.96C58.9564 387.96 57.5697 387.3 56.7297 385.98C55.903 384.66 55.4897 382.84 55.4897 380.52ZM63.5297 380.52C63.5297 379.533 63.463 378.707 63.3297 378.04C63.2097 377.36 62.9564 376.807 62.5697 376.38C62.1964 375.953 61.6364 375.74 60.8897 375.74C60.143 375.74 59.5764 375.953 59.1897 376.38C58.8164 376.807 58.563 377.36 58.4297 378.04C58.3097 378.707 58.2497 379.533 58.2497 380.52C58.2497 381.533 58.3097 382.387 58.4297 383.08C58.5497 383.76 58.803 384.313 59.1897 384.74C59.5764 385.153 60.143 385.36 60.8897 385.36C61.6364 385.36 62.203 385.153 62.5897 384.74C62.9764 384.313 63.2297 383.76 63.3497 383.08C63.4697 382.387 63.5297 381.533 63.5297 380.52ZM77.2594 379.68V382.04H68.7794V379.68H77.2594ZM79.7395 376V373.42H84.5595V388H81.6795V376H79.7395ZM88.8856 388.14C88.379 388.14 87.959 387.987 87.6256 387.68C87.3056 387.36 87.1456 386.967 87.1456 386.5C87.1456 386.033 87.3056 385.647 87.6256 385.34C87.959 385.02 88.379 384.86 88.8856 384.86C89.379 384.86 89.7856 385.02 90.1056 385.34C90.4256 385.647 90.5856 386.033 90.5856 386.5C90.5856 386.967 90.4256 387.36 90.1056 387.68C89.7856 387.987 89.379 388.14 88.8856 388.14ZM88.8856 379.86C88.379 379.86 87.959 379.707 87.6256 379.4C87.3056 379.08 87.1456 378.687 87.1456 378.22C87.1456 377.753 87.3056 377.367 87.6256 377.06C87.959 376.74 88.379 376.58 88.8856 376.58C89.379 376.58 89.7856 376.74 90.1056 377.06C90.4256 377.367 90.5856 377.753 90.5856 378.22C90.5856 378.687 90.4256 379.08 90.1056 379.4C89.7856 379.707 89.379 379.86 88.8856 379.86ZM92.6195 377.26C92.6862 375.927 93.1529 374.9 94.0195 374.18C94.8995 373.447 96.0529 373.08 97.4795 373.08C98.4529 373.08 99.2862 373.253 99.9795 373.6C100.673 373.933 101.193 374.393 101.54 374.98C101.9 375.553 102.08 376.207 102.08 376.94C102.08 377.78 101.86 378.493 101.42 379.08C100.993 379.653 100.48 380.04 99.8795 380.24V380.32C100.653 380.56 101.253 380.987 101.68 381.6C102.12 382.213 102.34 383 102.34 383.96C102.34 384.76 102.153 385.473 101.78 386.1C101.42 386.727 100.88 387.22 100.16 387.58C99.4529 387.927 98.5995 388.1 97.5995 388.1C96.0929 388.1 94.8662 387.72 93.9195 386.96C92.9729 386.2 92.4729 385.08 92.4195 383.6H95.1395C95.1662 384.253 95.3862 384.78 95.7995 385.18C96.2262 385.567 96.8062 385.76 97.5395 385.76C98.2195 385.76 98.7395 385.573 99.0995 385.2C99.4729 384.813 99.6595 384.32 99.6595 383.72C99.6595 382.92 99.4062 382.347 98.8995 382C98.3929 381.653 97.6062 381.48 96.5395 381.48H95.9595V379.18H96.5395C98.4329 379.18 99.3795 378.547 99.3795 377.28C99.3795 376.707 99.2062 376.26 98.8595 375.94C98.5262 375.62 98.0395 375.46 97.3995 375.46C96.7729 375.46 96.2862 375.633 95.9395 375.98C95.6062 376.313 95.4129 376.74 95.3595 377.26H92.6195ZM104.552 380.52C104.552 378.213 104.966 376.407 105.792 375.1C106.632 373.793 108.019 373.14 109.952 373.14C111.886 373.14 113.266 373.793 114.092 375.1C114.932 376.407 115.352 378.213 115.352 380.52C115.352 382.84 114.932 384.66 114.092 385.98C113.266 387.3 111.886 387.96 109.952 387.96C108.019 387.96 106.632 387.3 105.792 385.98C104.966 384.66 104.552 382.84 104.552 380.52ZM112.592 380.52C112.592 379.533 112.526 378.707 112.392 378.04C112.272 377.36 112.019 376.807 111.632 376.38C111.259 375.953 110.699 375.74 109.952 375.74C109.206 375.74 108.639 375.953 108.252 376.38C107.879 376.807 107.626 377.36 107.492 378.04C107.372 378.707 107.312 379.533 107.312 380.52C107.312 381.533 107.372 382.387 107.492 383.08C107.612 383.76 107.866 384.313 108.252 384.74C108.639 385.153 109.206 385.36 109.952 385.36C110.699 385.36 111.266 385.153 111.652 384.74C112.039 384.313 112.292 383.76 112.412 383.08C112.532 382.387 112.592 381.533 112.592 380.52Z" fill="white"/>
<path d="M249.168 74.53V85H247.068V78.19L244.263 85H242.673L239.853 78.19V85H237.753V74.53H240.138L243.468 82.315L246.798 74.53H249.168ZM250.704 80.815C250.704 79.975 250.869 79.23 251.199 78.58C251.539 77.93 251.994 77.43 252.564 77.08C253.144 76.73 253.789 76.555 254.499 76.555C255.119 76.555 255.659 76.68 256.119 76.93C256.589 77.18 256.964 77.495 257.244 77.875V76.69H259.359V85H257.244V83.785C256.974 84.175 256.599 84.5 256.119 84.76C255.649 85.01 255.104 85.135 254.484 85.135C253.784 85.135 253.144 84.955 252.564 84.595C251.994 84.235 251.539 83.73 251.199 83.08C250.869 82.42 250.704 81.665 250.704 80.815ZM257.244 80.845C257.244 80.335 257.144 79.9 256.944 79.54C256.744 79.17 256.474 78.89 256.134 78.7C255.794 78.5 255.429 78.4 255.039 78.4C254.649 78.4 254.289 78.495 253.959 78.685C253.629 78.875 253.359 79.155 253.149 79.525C252.949 79.885 252.849 80.315 252.849 80.815C252.849 81.315 252.949 81.755 253.149 82.135C253.359 82.505 253.629 82.79 253.959 82.99C254.299 83.19 254.659 83.29 255.039 83.29C255.429 83.29 255.794 83.195 256.134 83.005C256.474 82.805 256.744 82.525 256.944 82.165C257.144 81.795 257.244 81.355 257.244 80.845ZM263.855 78.415V82.435C263.855 82.715 263.92 82.92 264.05 83.05C264.19 83.17 264.42 83.23 264.74 83.23H265.715V85H264.395C262.625 85 261.74 84.14 261.74 82.42V78.415H260.75V76.69H261.74V74.635H263.855V76.69H265.715V78.415H263.855ZM271.906 76.57C272.536 76.57 273.096 76.71 273.586 76.99C274.076 77.26 274.456 77.665 274.726 78.205C275.006 78.735 275.146 79.375 275.146 80.125V85H273.046V80.41C273.046 79.75 272.881 79.245 272.551 78.895C272.221 78.535 271.771 78.355 271.201 78.355C270.621 78.355 270.161 78.535 269.821 78.895C269.491 79.245 269.326 79.75 269.326 80.41V85H267.226V73.9H269.326V77.725C269.596 77.365 269.956 77.085 270.406 76.885C270.856 76.675 271.356 76.57 271.906 76.57ZM280.323 85.135C279.643 85.135 279.033 85.015 278.493 84.775C277.953 84.525 277.523 84.19 277.203 83.77C276.893 83.35 276.723 82.885 276.693 82.375H278.808C278.848 82.695 279.003 82.96 279.273 83.17C279.553 83.38 279.898 83.485 280.308 83.485C280.708 83.485 281.018 83.405 281.238 83.245C281.468 83.085 281.583 82.88 281.583 82.63C281.583 82.36 281.443 82.16 281.163 82.03C280.893 81.89 280.458 81.74 279.858 81.58C279.238 81.43 278.728 81.275 278.328 81.115C277.938 80.955 277.598 80.71 277.308 80.38C277.028 80.05 276.888 79.605 276.888 79.045C276.888 78.585 277.018 78.165 277.278 77.785C277.548 77.405 277.928 77.105 278.418 76.885C278.918 76.665 279.503 76.555 280.173 76.555C281.163 76.555 281.953 76.805 282.543 77.305C283.133 77.795 283.458 78.46 283.518 79.3H281.508C281.478 78.97 281.338 78.71 281.088 78.52C280.848 78.32 280.523 78.22 280.113 78.22C279.733 78.22 279.438 78.29 279.228 78.43C279.028 78.57 278.928 78.765 278.928 79.015C278.928 79.295 279.068 79.51 279.348 79.66C279.628 79.8 280.063 79.945 280.653 80.095C281.253 80.245 281.748 80.4 282.138 80.56C282.528 80.72 282.863 80.97 283.143 81.31C283.433 81.64 283.583 82.08 283.593 82.63C283.593 83.11 283.458 83.54 283.188 83.92C282.928 84.3 282.548 84.6 282.048 84.82C281.558 85.03 280.983 85.135 280.323 85.135Z" fill="white"/>
<path d="M240.335 137.77C240.335 138.33 240.2 138.855 239.93 139.345C239.67 139.835 239.255 140.23 238.685 140.53C238.125 140.83 237.415 140.98 236.555 140.98H234.8V145H232.7V134.53H236.555C237.365 134.53 238.055 134.67 238.625 134.95C239.195 135.23 239.62 135.615 239.9 136.105C240.19 136.595 240.335 137.15 240.335 137.77ZM236.465 139.285C237.045 139.285 237.475 139.155 237.755 138.895C238.035 138.625 238.175 138.25 238.175 137.77C238.175 136.75 237.605 136.24 236.465 136.24H234.8V139.285H236.465ZM246.506 136.57C247.136 136.57 247.696 136.71 248.186 136.99C248.676 137.26 249.056 137.665 249.326 138.205C249.606 138.735 249.746 139.375 249.746 140.125V145H247.646V140.41C247.646 139.75 247.481 139.245 247.151 138.895C246.821 138.535 246.371 138.355 245.801 138.355C245.221 138.355 244.761 138.535 244.421 138.895C244.091 139.245 243.926 139.75 243.926 140.41V145H241.826V133.9H243.926V137.725C244.196 137.365 244.556 137.085 245.006 136.885C245.456 136.675 245.956 136.57 246.506 136.57ZM259.693 136.69L254.548 148.93H252.313L254.113 144.79L250.783 136.69H253.138L255.283 142.495L257.458 136.69H259.693ZM264.005 145.135C263.325 145.135 262.715 145.015 262.175 144.775C261.635 144.525 261.205 144.19 260.885 143.77C260.575 143.35 260.405 142.885 260.375 142.375H262.49C262.53 142.695 262.685 142.96 262.955 143.17C263.235 143.38 263.58 143.485 263.99 143.485C264.39 143.485 264.7 143.405 264.92 143.245C265.15 143.085 265.265 142.88 265.265 142.63C265.265 142.36 265.125 142.16 264.845 142.03C264.575 141.89 264.14 141.74 263.54 141.58C262.92 141.43 262.41 141.275 262.01 141.115C261.62 140.955 261.28 140.71 260.99 140.38C260.71 140.05 260.57 139.605 260.57 139.045C260.57 138.585 260.7 138.165 260.96 137.785C261.23 137.405 261.61 137.105 262.1 136.885C262.6 136.665 263.185 136.555 263.855 136.555C264.845 136.555 265.635 136.805 266.225 137.305C266.815 137.795 267.14 138.46 267.2 139.3H265.19C265.16 138.97 265.02 138.71 264.77 138.52C264.53 138.32 264.205 138.22 263.795 138.22C263.415 138.22 263.12 138.29 262.91 138.43C262.71 138.57 262.61 138.765 262.61 139.015C262.61 139.295 262.75 139.51 263.03 139.66C263.31 139.8 263.745 139.945 264.335 140.095C264.935 140.245 265.43 140.4 265.82 140.56C266.21 140.72 266.545 140.97 266.825 141.31C267.115 141.64 267.265 142.08 267.275 142.63C267.275 143.11 267.14 143.54 266.87 143.92C266.61 144.3 266.23 144.6 265.73 144.82C265.24 145.03 264.665 145.135 264.005 145.135ZM270.063 135.7C269.693 135.7 269.383 135.585 269.133 135.355C268.893 135.115 268.773 134.82 268.773 134.47C268.773 134.12 268.893 133.83 269.133 133.6C269.383 133.36 269.693 133.24 270.063 133.24C270.433 133.24 270.738 133.36 270.978 133.6C271.228 133.83 271.353 134.12 271.353 134.47C271.353 134.82 271.228 135.115 270.978 135.355C270.738 135.585 270.433 135.7 270.063 135.7ZM271.098 136.69V145H268.998V136.69H271.098ZM272.633 140.845C272.633 139.985 272.808 139.235 273.158 138.595C273.508 137.945 273.993 137.445 274.613 137.095C275.233 136.735 275.943 136.555 276.743 136.555C277.773 136.555 278.623 136.815 279.293 137.335C279.973 137.845 280.428 138.565 280.658 139.495H278.393C278.273 139.135 278.068 138.855 277.778 138.655C277.498 138.445 277.148 138.34 276.728 138.34C276.128 138.34 275.653 138.56 275.303 139C274.953 139.43 274.778 140.045 274.778 140.845C274.778 141.635 274.953 142.25 275.303 142.69C275.653 143.12 276.128 143.335 276.728 143.335C277.578 143.335 278.133 142.955 278.393 142.195H280.658C280.428 143.095 279.973 143.81 279.293 144.34C278.613 144.87 277.763 145.135 276.743 145.135C275.943 145.135 275.233 144.96 274.613 144.61C273.993 144.25 273.508 143.75 273.158 143.11C272.808 142.46 272.633 141.705 272.633 140.845ZM285.377 145.135C284.697 145.135 284.087 145.015 283.547 144.775C283.007 144.525 282.577 144.19 282.257 143.77C281.947 143.35 281.777 142.885 281.747 142.375H283.862C283.902 142.695 284.057 142.96 284.327 143.17C284.607 143.38 284.952 143.485 285.362 143.485C285.762 143.485 286.072 143.405 286.292 143.245C286.522 143.085 286.637 142.88 286.637 142.63C286.637 142.36 286.497 142.16 286.217 142.03C285.947 141.89 285.512 141.74 284.912 141.58C284.292 141.43 283.782 141.275 283.382 141.115C282.992 140.955 282.652 140.71 282.362 140.38C282.082 140.05 281.942 139.605 281.942 139.045C281.942 138.585 282.072 138.165 282.332 137.785C282.602 137.405 282.982 137.105 283.472 136.885C283.972 136.665 284.557 136.555 285.227 136.555C286.217 136.555 287.007 136.805 287.597 137.305C288.187 137.795 288.512 138.46 288.572 139.3H286.562C286.532 138.97 286.392 138.71 286.142 138.52C285.902 138.32 285.577 138.22 285.167 138.22C284.787 138.22 284.492 138.29 284.282 138.43C284.082 138.57 283.982 138.765 283.982 139.015C283.982 139.295 284.122 139.51 284.402 139.66C284.682 139.8 285.117 139.945 285.707 140.095C286.307 140.245 286.802 140.4 287.192 140.56C287.582 140.72 287.917 140.97 288.197 141.31C288.487 141.64 288.637 142.08 288.647 142.63C288.647 143.11 288.512 143.54 288.242 143.92C287.982 144.3 287.602 144.6 287.102 144.82C286.612 145.03 286.037 145.135 285.377 145.135Z" fill="white"/>
<path d="M236.382 198.225V200.85H239.907V202.515H236.382V205.29H240.357V207H234.282V196.515H240.357V198.225H236.382ZM246.87 198.57C247.86 198.57 248.66 198.885 249.27 199.515C249.88 200.135 250.185 201.005 250.185 202.125V207H248.085V202.41C248.085 201.75 247.92 201.245 247.59 200.895C247.26 200.535 246.81 200.355 246.24 200.355C245.66 200.355 245.2 200.535 244.86 200.895C244.53 201.245 244.365 201.75 244.365 202.41V207H242.265V198.69H244.365V199.725C244.645 199.365 245 199.085 245.43 198.885C245.87 198.675 246.35 198.57 246.87 198.57ZM255.437 198.555C256.057 198.555 256.602 198.68 257.072 198.93C257.542 199.17 257.912 199.485 258.182 199.875V198.69H260.297V207.06C260.297 207.83 260.142 208.515 259.832 209.115C259.522 209.725 259.057 210.205 258.437 210.555C257.817 210.915 257.067 211.095 256.187 211.095C255.007 211.095 254.037 210.82 253.277 210.27C252.527 209.72 252.102 208.97 252.002 208.02H254.087C254.197 208.4 254.432 208.7 254.792 208.92C255.162 209.15 255.607 209.265 256.127 209.265C256.737 209.265 257.232 209.08 257.612 208.71C257.992 208.35 258.182 207.8 258.182 207.06V205.77C257.912 206.16 257.537 206.485 257.057 206.745C256.587 207.005 256.047 207.135 255.437 207.135C254.737 207.135 254.097 206.955 253.517 206.595C252.937 206.235 252.477 205.73 252.137 205.08C251.807 204.42 251.642 203.665 251.642 202.815C251.642 201.975 251.807 201.23 252.137 200.58C252.477 199.93 252.932 199.43 253.502 199.08C254.082 198.73 254.727 198.555 255.437 198.555ZM258.182 202.845C258.182 202.335 258.082 201.9 257.882 201.54C257.682 201.17 257.412 200.89 257.072 200.7C256.732 200.5 256.367 200.4 255.977 200.4C255.587 200.4 255.227 200.495 254.897 200.685C254.567 200.875 254.297 201.155 254.087 201.525C253.887 201.885 253.787 202.315 253.787 202.815C253.787 203.315 253.887 203.755 254.087 204.135C254.297 204.505 254.567 204.79 254.897 204.99C255.237 205.19 255.597 205.29 255.977 205.29C256.367 205.29 256.732 205.195 257.072 205.005C257.412 204.805 257.682 204.525 257.882 204.165C258.082 203.795 258.182 203.355 258.182 202.845ZM264.448 195.9V207H262.348V195.9H264.448ZM267.588 197.7C267.218 197.7 266.908 197.585 266.658 197.355C266.418 197.115 266.298 196.82 266.298 196.47C266.298 196.12 266.418 195.83 266.658 195.6C266.908 195.36 267.218 195.24 267.588 195.24C267.958 195.24 268.263 195.36 268.503 195.6C268.753 195.83 268.878 196.12 268.878 196.47C268.878 196.82 268.753 197.115 268.503 197.355C268.263 197.585 267.958 197.7 267.588 197.7ZM268.623 198.69V207H266.523V198.69H268.623ZM273.878 207.135C273.198 207.135 272.588 207.015 272.048 206.775C271.508 206.525 271.078 206.19 270.758 205.77C270.448 205.35 270.278 204.885 270.248 204.375H272.363C272.403 204.695 272.558 204.96 272.828 205.17C273.108 205.38 273.453 205.485 273.863 205.485C274.263 205.485 274.573 205.405 274.793 205.245C275.023 205.085 275.138 204.88 275.138 204.63C275.138 204.36 274.998 204.16 274.718 204.03C274.448 203.89 274.013 203.74 273.413 203.58C272.793 203.43 272.283 203.275 271.883 203.115C271.493 202.955 271.153 202.71 270.863 202.38C270.583 202.05 270.443 201.605 270.443 201.045C270.443 200.585 270.573 200.165 270.833 199.785C271.103 199.405 271.483 199.105 271.973 198.885C272.473 198.665 273.058 198.555 273.728 198.555C274.718 198.555 275.508 198.805 276.098 199.305C276.688 199.795 277.013 200.46 277.073 201.3H275.063C275.033 200.97 274.893 200.71 274.643 200.52C274.403 200.32 274.078 200.22 273.668 200.22C273.288 200.22 272.993 200.29 272.783 200.43C272.583 200.57 272.483 200.765 272.483 201.015C272.483 201.295 272.623 201.51 272.903 201.66C273.183 201.8 273.618 201.945 274.208 202.095C274.808 202.245 275.303 202.4 275.693 202.56C276.083 202.72 276.418 202.97 276.698 203.31C276.988 203.64 277.138 204.08 277.148 204.63C277.148 205.11 277.013 205.54 276.743 205.92C276.483 206.3 276.103 206.6 275.603 206.82C275.113 207.03 274.538 207.135 273.878 207.135ZM283.551 198.57C284.181 198.57 284.741 198.71 285.231 198.99C285.721 199.26 286.101 199.665 286.371 200.205C286.651 200.735 286.791 201.375 286.791 202.125V207H284.691V202.41C284.691 201.75 284.526 201.245 284.196 200.895C283.866 200.535 283.416 200.355 282.846 200.355C282.266 200.355 281.806 200.535 281.466 200.895C281.136 201.245 280.971 201.75 280.971 202.41V207H278.871V195.9H280.971V199.725C281.241 199.365 281.601 199.085 282.051 198.885C282.501 198.675 283.001 198.57 283.551 198.57Z" fill="white"/>
<path d="M240.805 265.335H244.255V267H238.705V256.53H240.805V265.335ZM253.435 258.69V267H251.32V265.95C251.05 266.31 250.695 266.595 250.255 266.805C249.825 267.005 249.355 267.105 248.845 267.105C248.195 267.105 247.62 266.97 247.12 266.7C246.62 266.42 246.225 266.015 245.935 265.485C245.655 264.945 245.515 264.305 245.515 263.565V258.69H247.615V263.265C247.615 263.925 247.78 264.435 248.11 264.795C248.44 265.145 248.89 265.32 249.46 265.32C250.04 265.32 250.495 265.145 250.825 264.795C251.155 264.435 251.32 263.925 251.32 263.265V258.69H253.435ZM260.112 258.57C261.102 258.57 261.902 258.885 262.512 259.515C263.122 260.135 263.427 261.005 263.427 262.125V267H261.327V262.41C261.327 261.75 261.162 261.245 260.832 260.895C260.502 260.535 260.052 260.355 259.482 260.355C258.902 260.355 258.442 260.535 258.102 260.895C257.772 261.245 257.607 261.75 257.607 262.41V267H255.507V258.69H257.607V259.725C257.887 259.365 258.242 259.085 258.672 258.885C259.112 258.675 259.592 258.57 260.112 258.57ZM264.884 262.845C264.884 261.985 265.059 261.235 265.409 260.595C265.759 259.945 266.244 259.445 266.864 259.095C267.484 258.735 268.194 258.555 268.994 258.555C270.024 258.555 270.874 258.815 271.544 259.335C272.224 259.845 272.679 260.565 272.909 261.495H270.644C270.524 261.135 270.319 260.855 270.029 260.655C269.749 260.445 269.399 260.34 268.979 260.34C268.379 260.34 267.904 260.56 267.554 261C267.204 261.43 267.029 262.045 267.029 262.845C267.029 263.635 267.204 264.25 267.554 264.69C267.904 265.12 268.379 265.335 268.979 265.335C269.829 265.335 270.384 264.955 270.644 264.195H272.909C272.679 265.095 272.224 265.81 271.544 266.34C270.864 266.87 270.014 267.135 268.994 267.135C268.194 267.135 267.484 266.96 266.864 266.61C266.244 266.25 265.759 265.75 265.409 265.11C265.059 264.46 264.884 263.705 264.884 262.845ZM279.128 258.57C279.758 258.57 280.318 258.71 280.808 258.99C281.298 259.26 281.678 259.665 281.948 260.205C282.228 260.735 282.368 261.375 282.368 262.125V267H280.268V262.41C280.268 261.75 280.103 261.245 279.773 260.895C279.443 260.535 278.993 260.355 278.423 260.355C277.843 260.355 277.383 260.535 277.043 260.895C276.713 261.245 276.548 261.75 276.548 262.41V267H274.448V255.9H276.548V259.725C276.818 259.365 277.178 259.085 277.628 258.885C278.078 258.675 278.578 258.57 279.128 258.57Z" fill="white"/>
<path d="M243.406 314.53V325H241.306V320.545H236.821V325H234.721V314.53H236.821V318.835H241.306V314.53H243.406ZM246.538 315.7C246.168 315.7 245.858 315.585 245.608 315.355C245.368 315.115 245.248 314.82 245.248 314.47C245.248 314.12 245.368 313.83 245.608 313.6C245.858 313.36 246.168 313.24 246.538 313.24C246.908 313.24 247.213 313.36 247.453 313.6C247.703 313.83 247.828 314.12 247.828 314.47C247.828 314.82 247.703 315.115 247.453 315.355C247.213 315.585 246.908 315.7 246.538 315.7ZM247.573 316.69V325H245.473V316.69H247.573ZM252.828 325.135C252.148 325.135 251.538 325.015 250.998 324.775C250.458 324.525 250.028 324.19 249.708 323.77C249.398 323.35 249.228 322.885 249.198 322.375H251.313C251.353 322.695 251.508 322.96 251.778 323.17C252.058 323.38 252.403 323.485 252.813 323.485C253.213 323.485 253.523 323.405 253.743 323.245C253.973 323.085 254.088 322.88 254.088 322.63C254.088 322.36 253.948 322.16 253.668 322.03C253.398 321.89 252.963 321.74 252.363 321.58C251.743 321.43 251.233 321.275 250.833 321.115C250.443 320.955 250.103 320.71 249.813 320.38C249.533 320.05 249.393 319.605 249.393 319.045C249.393 318.585 249.523 318.165 249.783 317.785C250.053 317.405 250.433 317.105 250.923 316.885C251.423 316.665 252.008 316.555 252.678 316.555C253.668 316.555 254.458 316.805 255.048 317.305C255.638 317.795 255.963 318.46 256.023 319.3H254.013C253.983 318.97 253.843 318.71 253.593 318.52C253.353 318.32 253.028 318.22 252.618 318.22C252.238 318.22 251.943 318.29 251.733 318.43C251.533 318.57 251.433 318.765 251.433 319.015C251.433 319.295 251.573 319.51 251.853 319.66C252.133 319.8 252.568 319.945 253.158 320.095C253.758 320.245 254.253 320.4 254.643 320.56C255.033 320.72 255.368 320.97 255.648 321.31C255.938 321.64 256.088 322.08 256.098 322.63C256.098 323.11 255.963 323.54 255.693 323.92C255.433 324.3 255.053 324.6 254.553 324.82C254.063 325.03 253.488 325.135 252.828 325.135ZM260.267 318.415V322.435C260.267 322.715 260.332 322.92 260.462 323.05C260.602 323.17 260.832 323.23 261.152 323.23H262.127V325H260.807C259.037 325 258.152 324.14 258.152 322.42V318.415H257.162V316.69H258.152V314.635H260.267V316.69H262.127V318.415H260.267ZM267.327 325.135C266.527 325.135 265.807 324.96 265.167 324.61C264.527 324.25 264.022 323.745 263.652 323.095C263.292 322.445 263.112 321.695 263.112 320.845C263.112 319.995 263.297 319.245 263.667 318.595C264.047 317.945 264.562 317.445 265.212 317.095C265.862 316.735 266.587 316.555 267.387 316.555C268.187 316.555 268.912 316.735 269.562 317.095C270.212 317.445 270.722 317.945 271.092 318.595C271.472 319.245 271.662 319.995 271.662 320.845C271.662 321.695 271.467 322.445 271.077 323.095C270.697 323.745 270.177 324.25 269.517 324.61C268.867 324.96 268.137 325.135 267.327 325.135ZM267.327 323.305C267.707 323.305 268.062 323.215 268.392 323.035C268.732 322.845 269.002 322.565 269.202 322.195C269.402 321.825 269.502 321.375 269.502 320.845C269.502 320.055 269.292 319.45 268.872 319.03C268.462 318.6 267.957 318.385 267.357 318.385C266.757 318.385 266.252 318.6 265.842 319.03C265.442 319.45 265.242 320.055 265.242 320.845C265.242 321.635 265.437 322.245 265.827 322.675C266.227 323.095 266.727 323.305 267.327 323.305ZM275.302 317.98C275.572 317.54 275.922 317.195 276.352 316.945C276.792 316.695 277.292 316.57 277.852 316.57V318.775H277.297C276.637 318.775 276.137 318.93 275.797 319.24C275.467 319.55 275.302 320.09 275.302 320.86V325H273.202V316.69H275.302V317.98ZM287.217 316.69L282.072 328.93H279.837L281.637 324.79L278.307 316.69H280.662L282.807 322.495L284.982 316.69H287.217Z" fill="white"/>
<path d="M248.628 376.53V387H246.528V382.545H242.043V387H239.943V376.53H242.043V380.835H246.528V376.53H248.628ZM251.76 377.7C251.39 377.7 251.08 377.585 250.83 377.355C250.59 377.115 250.47 376.82 250.47 376.47C250.47 376.12 250.59 375.83 250.83 375.6C251.08 375.36 251.39 375.24 251.76 375.24C252.13 375.24 252.435 375.36 252.675 375.6C252.925 375.83 253.05 376.12 253.05 376.47C253.05 376.82 252.925 377.115 252.675 377.355C252.435 377.585 252.13 377.7 251.76 377.7ZM252.795 378.69V387H250.695V378.69H252.795ZM259.474 378.57C260.464 378.57 261.264 378.885 261.874 379.515C262.484 380.135 262.789 381.005 262.789 382.125V387H260.689V382.41C260.689 381.75 260.524 381.245 260.194 380.895C259.864 380.535 259.414 380.355 258.844 380.355C258.264 380.355 257.804 380.535 257.464 380.895C257.134 381.245 256.969 381.75 256.969 382.41V387H254.869V378.69H256.969V379.725C257.249 379.365 257.604 379.085 258.034 378.885C258.474 378.675 258.954 378.57 259.474 378.57ZM264.246 382.815C264.246 381.975 264.411 381.23 264.741 380.58C265.081 379.93 265.541 379.43 266.121 379.08C266.701 378.73 267.346 378.555 268.056 378.555C268.596 378.555 269.111 378.675 269.601 378.915C270.091 379.145 270.481 379.455 270.771 379.845V375.9H272.901V387H270.771V385.77C270.511 386.18 270.146 386.51 269.676 386.76C269.206 387.01 268.661 387.135 268.041 387.135C267.341 387.135 266.701 386.955 266.121 386.595C265.541 386.235 265.081 385.73 264.741 385.08C264.411 384.42 264.246 383.665 264.246 382.815ZM270.786 382.845C270.786 382.335 270.686 381.9 270.486 381.54C270.286 381.17 270.016 380.89 269.676 380.7C269.336 380.5 268.971 380.4 268.581 380.4C268.191 380.4 267.831 380.495 267.501 380.685C267.171 380.875 266.901 381.155 266.691 381.525C266.491 381.885 266.391 382.315 266.391 382.815C266.391 383.315 266.491 383.755 266.691 384.135C266.901 384.505 267.171 384.79 267.501 384.99C267.841 385.19 268.201 385.29 268.581 385.29C268.971 385.29 269.336 385.195 269.676 385.005C270.016 384.805 270.286 384.525 270.486 384.165C270.686 383.795 270.786 383.355 270.786 382.845ZM276.017 377.7C275.647 377.7 275.337 377.585 275.087 377.355C274.847 377.115 274.727 376.82 274.727 376.47C274.727 376.12 274.847 375.83 275.087 375.6C275.337 375.36 275.647 375.24 276.017 375.24C276.387 375.24 276.692 375.36 276.932 375.6C277.182 375.83 277.307 376.12 277.307 376.47C277.307 376.82 277.182 377.115 276.932 377.355C276.692 377.585 276.387 377.7 276.017 377.7ZM277.052 378.69V387H274.952V378.69H277.052Z" fill="white"/>
<path d="M224.157 35.154C223.086 35.154 222.118 34.9707 221.253 34.604C220.402 34.2373 219.728 33.7093 219.229 33.02C218.73 32.3307 218.474 31.5167 218.459 30.578H221.759C221.803 31.2087 222.023 31.7073 222.419 32.074C222.83 32.4407 223.387 32.624 224.091 32.624C224.81 32.624 225.374 32.4553 225.785 32.118C226.196 31.766 226.401 31.3113 226.401 30.754C226.401 30.2993 226.262 29.9253 225.983 29.632C225.704 29.3387 225.352 29.1113 224.927 28.95C224.516 28.774 223.944 28.5833 223.211 28.378C222.214 28.0847 221.4 27.7987 220.769 27.52C220.153 27.2267 219.618 26.794 219.163 26.222C218.723 25.6353 218.503 24.858 218.503 23.89C218.503 22.9807 218.73 22.1887 219.185 21.514C219.64 20.8393 220.278 20.326 221.099 19.974C221.92 19.6073 222.859 19.424 223.915 19.424C225.499 19.424 226.782 19.8127 227.765 20.59C228.762 21.3527 229.312 22.4233 229.415 23.802H226.027C225.998 23.274 225.77 22.8413 225.345 22.504C224.934 22.152 224.384 21.976 223.695 21.976C223.094 21.976 222.61 22.13 222.243 22.438C221.891 22.746 221.715 23.1933 221.715 23.78C221.715 24.1907 221.847 24.5353 222.111 24.814C222.39 25.078 222.727 25.298 223.123 25.474C223.534 25.6353 224.106 25.826 224.839 26.046C225.836 26.3393 226.65 26.6327 227.281 26.926C227.912 27.2193 228.454 27.6593 228.909 28.246C229.364 28.8327 229.591 29.6027 229.591 30.556C229.591 31.3773 229.378 32.14 228.953 32.844C228.528 33.548 227.904 34.1127 227.083 34.538C226.262 34.9487 225.286 35.154 224.157 35.154ZM243.767 22.812V35H240.665V33.46C240.269 33.988 239.748 34.406 239.103 34.714C238.472 35.0073 237.783 35.154 237.035 35.154C236.082 35.154 235.238 34.956 234.505 34.56C233.772 34.1493 233.192 33.5553 232.767 32.778C232.356 31.986 232.151 31.0473 232.151 29.962V22.812H235.231V29.522C235.231 30.49 235.473 31.238 235.957 31.766C236.441 32.2793 237.101 32.536 237.937 32.536C238.788 32.536 239.455 32.2793 239.939 31.766C240.423 31.238 240.665 30.49 240.665 29.522V22.812H243.767ZM249.886 24.594C250.282 24.0073 250.825 23.5307 251.514 23.164C252.218 22.7973 253.017 22.614 253.912 22.614C254.953 22.614 255.892 22.8707 256.728 23.384C257.579 23.8973 258.246 24.6307 258.73 25.584C259.229 26.5227 259.478 27.6153 259.478 28.862C259.478 30.1087 259.229 31.216 258.73 32.184C258.246 33.1373 257.579 33.878 256.728 34.406C255.892 34.934 254.953 35.198 253.912 35.198C253.003 35.198 252.203 35.022 251.514 34.67C250.839 34.3033 250.297 33.834 249.886 33.262V35H246.806V18.72H249.886V24.594ZM256.332 28.862C256.332 28.1287 256.178 27.498 255.87 26.97C255.577 26.4273 255.181 26.0167 254.682 25.738C254.198 25.4593 253.67 25.32 253.098 25.32C252.541 25.32 252.013 25.4667 251.514 25.76C251.03 26.0387 250.634 26.4493 250.326 26.992C250.033 27.5347 249.886 28.1727 249.886 28.906C249.886 29.6393 250.033 30.2773 250.326 30.82C250.634 31.3627 251.03 31.7807 251.514 32.074C252.013 32.3527 252.541 32.492 253.098 32.492C253.67 32.492 254.198 32.3453 254.682 32.052C255.181 31.7587 255.577 31.3407 255.87 30.798C256.178 30.2553 256.332 29.61 256.332 28.862ZM263.278 21.36C262.721 21.36 262.259 21.1913 261.892 20.854C261.54 20.502 261.364 20.0693 261.364 19.556C261.364 19.0427 261.54 18.6173 261.892 18.28C262.259 17.928 262.721 17.752 263.278 17.752C263.821 17.752 264.268 17.928 264.62 18.28C264.972 18.6173 265.148 19.0427 265.148 19.556C265.148 20.0693 264.972 20.502 264.62 20.854C264.268 21.1913 263.821 21.36 263.278 21.36ZM264.796 37.002C264.796 38.3513 264.459 39.3193 263.784 39.906C263.124 40.5073 262.171 40.808 260.924 40.808H259.56V38.19H260.44C260.91 38.19 261.24 38.0947 261.43 37.904C261.621 37.728 261.716 37.4347 261.716 37.024V22.812H264.796V37.002ZM279.169 28.642C279.169 29.082 279.14 29.478 279.081 29.83H270.171C270.245 30.71 270.553 31.3993 271.095 31.898C271.638 32.3967 272.305 32.646 273.097 32.646C274.241 32.646 275.055 32.1547 275.539 31.172H278.861C278.509 32.3453 277.835 33.3133 276.837 34.076C275.84 34.824 274.615 35.198 273.163 35.198C271.99 35.198 270.934 34.9413 269.995 34.428C269.071 33.9 268.345 33.1593 267.817 32.206C267.304 31.2527 267.047 30.1527 267.047 28.906C267.047 27.6447 267.304 26.5373 267.817 25.584C268.331 24.6307 269.049 23.8973 269.973 23.384C270.897 22.8707 271.961 22.614 273.163 22.614C274.322 22.614 275.356 22.8633 276.265 23.362C277.189 23.8607 277.901 24.572 278.399 25.496C278.913 26.4053 279.169 27.454 279.169 28.642ZM275.979 27.762C275.965 26.97 275.679 26.3393 275.121 25.87C274.564 25.386 273.882 25.144 273.075 25.144C272.313 25.144 271.667 25.3787 271.139 25.848C270.626 26.3027 270.311 26.9407 270.193 27.762H275.979ZM280.625 28.906C280.625 27.6447 280.882 26.5447 281.395 25.606C281.909 24.6527 282.62 23.9193 283.529 23.406C284.439 22.878 285.48 22.614 286.653 22.614C288.164 22.614 289.411 22.9953 290.393 23.758C291.391 24.506 292.058 25.562 292.395 26.926H289.073C288.897 26.398 288.597 25.9873 288.171 25.694C287.761 25.386 287.247 25.232 286.631 25.232C285.751 25.232 285.055 25.5547 284.541 26.2C284.028 26.8307 283.771 27.7327 283.771 28.906C283.771 30.0647 284.028 30.9667 284.541 31.612C285.055 32.2427 285.751 32.558 286.631 32.558C287.878 32.558 288.692 32.0007 289.073 30.886H292.395C292.058 32.206 291.391 33.2547 290.393 34.032C289.396 34.8093 288.149 35.198 286.653 35.198C285.48 35.198 284.439 34.9413 283.529 34.428C282.62 33.9 281.909 33.1667 281.395 32.228C280.882 31.2747 280.625 30.1673 280.625 28.906ZM298.238 25.342V31.238C298.238 31.6487 298.333 31.9493 298.524 32.14C298.729 32.316 299.066 32.404 299.536 32.404H300.966V35H299.03C296.434 35 295.136 33.7387 295.136 31.216V25.342H293.684V22.812H295.136V19.798H298.238V22.812H300.966V25.342H298.238Z" fill="white"/>
<rect x="1.25" y="1.25" width="342.5" height="410.5" rx="25.75" stroke="white" stroke-opacity="0.5" stroke-width="2.5"/>
<line y1="-1.25" x2="343.001" y2="-1.25" transform="matrix(1 0 0.000182138 1 2 51.5928)" stroke="white" stroke-opacity="0.5" stroke-width="2.5"/>
<line y1="-1.25" x2="343.001" y2="-1.25" transform="matrix(1 0 0.000182138 1 2 111.593)" stroke="white" stroke-opacity="0.5" stroke-width="2.5"/>
<line y1="-1.25" x2="343.001" y2="-1.25" transform="matrix(1 0 0.000182138 1 2 171.593)" stroke="white" stroke-opacity="0.5" stroke-width="2.5"/>
<line y1="-1.25" x2="343.001" y2="-1.25" transform="matrix(1 0 0.000182138 1 2 231.593)" stroke="white" stroke-opacity="0.5" stroke-width="2.5"/>
<line y1="-1.25" x2="343.001" y2="-1.25" transform="matrix(1 0 0.000182138 1 2 291.593)" stroke="white" stroke-opacity="0.5" stroke-width="2.5"/>
<line y1="-1.25" x2="343.001" y2="-1.25" transform="matrix(0.999996 -0.00273525 0.00291738 0.999996 2 352.531)" stroke="white" stroke-opacity="0.5" stroke-width="2.5"/>
<line x1="171.75" y1="413" x2="171.75" stroke="white" stroke-opacity="0.5" stroke-width="2.5"/>
</svg>
